<?xml version="1.0" encoding="UTF-8"?>
<svg id="Capa_1" data-name="Capa 1" xmlns="http://www.w3.org/2000/svg" viewBox="0 0 181.13 202.96">
  <defs>
    <style>
      .cls-1 {
        fill: #f8d057;
        stroke-width: 0px;
      }
    </style>
  </defs>
  <path class="cls-1" d="M56.73,146.23c-1.08-2.69-2.24-5.37-3.15-8.12-1.44-4.33-3.14-8.56-4.69-12.84-1.34-3.72-2.71-7.44-4.08-11.15-.76-2.09-1.54-4.18-2.31-6.27-1.3-3.56-2.61-7.12-3.89-10.68-.87-2.43-1.9-4.81-2.53-7.32-.6-2.37-.58-2.34-3.1-2.36-2.17-.02-4.34.15-6.51-.13-1.12-.14-1.93.3-2.32,1.43-.94,2.66-2.08,5.26-2.89,7.93-1.16,3.8-2.72,7.45-3.93,11.23-1.35,4.21-3.04,8.32-4.52,12.5-1.56,4.39-3.15,8.76-4.74,13.13-1.2,3.31-2.32,6.67-3.62,9.95-.38.97-.93,2.02-.81,3.17,2.6,0,5.2-.01,7.8,0,.51,0,1.08-.2,1.5.3.55-.32.71-.92.89-1.44.69-1.97,1.34-3.96,1.96-5.95.48-1.59,1.55-2.96,1.71-4.64.09-.99.43-1.76,1.18-2.37.76.03,1.53.1,2.3.1,6.79.01,13.58,0,20.36,0,.76,2.06,1.66,4.09,2.24,6.19.56,2.03,1.56,3.88,2.01,5.96.17.8.11,2.36,1.56,2.4,2.99.09,5.99.04,8.98.02.73,0,.88-.36.6-1.05ZM21.4,123.12c1.66-4.62,3.25-9.26,4.83-13.9,1.07-3.16,2.1-6.33,3.26-9.85,1.29,2.33,1.75,4.63,2.56,6.8,2.04,5.47,4,10.96,6.02,16.43.6,1.63.41,2.01-1.28,2.01-4.77.01-9.55-.02-14.33.02-1.23,0-1.47-.34-1.06-1.51Z"/>
  <path class="cls-1" d="M109.74,135.32c.12,1.21-.27,2.1-.94,3.22-.99,1.66-2.15,3.14-3.33,4.64-.38.48-.87.73-1.51.61-5.32,4.39-11.6,5.22-18.12,4.52-5.32-.57-9.53-3.4-12.83-7.57-.08-.09-.04-.28-.06-.42-1.56-1.46-2.14-3.39-2.53-5.4-.3-1.5-.69-2.98-.59-4.55.06-1.09.48-1.56,1.58-1.55,2.36.03,4.72,0,7.08,0,.88,0,1.74.94,1.5,1.78-.45,1.66.59,2.87,1.23,4.12,2.01,3.94,5.58,5.13,9.74,5.08.29.3.57.27.84-.03.77-.94,2.04-.41,3-1.02.59-.38,1.27-.63,1.91-1.08,1.8-1.3,2.96-2.92,3.4-5.08.03-.14.27-.24.41-.36.03-.2.06-.39.09-.58.17-2.44-.15-4.8-1.29-7-.11-.36-.22-.72-.33-1.08l.02-.04c-.05-.59-.12-1.17-.93-1.15-.16,0-.33,0-.49.01-1.06.19-1.24-1-2.08-1.29-2.51-.87-5.09-.88-7.68-.86q-2.33.01-2.33-2.27c0-1.4-.03-2.8-.01-4.2.01-1.38.49-1.6,1.83-1.43,3,.38,6.12.36,8.69-1.25,3.95-2.47,4.83-8.25,1.97-12.07-2.94-3.93-8.91-5.02-12.8-2.73-2.95,1.75-4.38,4.54-4.62,7.88-.08,1.08-.43,1.36-1.34,1.35-2.37-.01-4.74-.03-7.1,0-.87.01-1.21-.27-1.18-1.17.08-2.88.75-5.56,1.98-8.18,2.05-4.34,5.35-7.26,9.81-8.76,3.49-1.17,7.11-1.3,10.8-.64,2.19.39,4.26.93,6.23,1.94,4.29,2.21,7.35,5.7,8.56,10.21,1.2,4.43,1.03,9.05-2.21,12.97-1.13,1.37-2.45,2.47-3.92,3.4-.92.57-.8.96.04,1.39,1.98,1.02,3.71,2.34,5.1,4.1.36.45.79.85.73,1.5.63.07,1.13.26,1,1.06-.14.88.59,1.46.78,2.28.76,3.27.76,6.47-.1,9.69Z"/>
  <path class="cls-1" d="M175.36,88.11c-.14,1.25-1.06,2.11-1.59,3.17-2.42,4.88-5.03,9.68-7.47,14.56-2.03,4.02-4.04,8.05-6.29,11.96-.53.92-.57,2.11-1.52,2.8-.06.45.06.98-.59,1.12v.03c-1.66,2.3-1.15,4.94-1.17,7.49-.03,5.5-.06,11,.02,16.51.02,1.34-.43,1.62-1.64,1.58-2.17-.08-4.35-.1-6.52.01-1.46.07-1.95-.45-1.62-1.83.3-.32.21-.72.21-1.1.01-5.44.01-10.87,0-16.31,0-.37.09-.78-.22-1.09,0-.79,0-1.58,0-2.37-2.3-4.62-4.76-9.16-7.16-13.72-2.94-5.57-5.76-11.2-8.88-16.68-.79-1.37-1.67-2.77-2.06-4.36-.9.04-1.52-.37-1.63-1.25-.07-.52-.34-1.43.33-1.53.94-.14,1.7-.78,2.72-.74,2.31.08,4.62.03,6.93.03s3.22,1.18,2.73,3.49c1.27,2.54,2.66,5.04,3.78,7.65,1.14,2.65,2.5,5.18,3.73,7.78,1.38,2.92,2.87,5.8,4.48,9.04,3.35-6.81,6.56-13.34,9.77-19.87.17-.01.27-.09.27-.27.03-.09.04-.17.03-.26-.3-1.57.92-2.63,1.35-3.96.08-.25.31-.44.37-.75.5-2.6.81-2.85,3.42-2.85h3.46c.58,0,1.13.07,1.32-.74.14-.56.84-.56.95-.11.26,1.07,1.01.85,1.69.84.74-.01.95.58,1.24,1.04.22.36,0,.64-.43.69Z"/>
  <path class="cls-1" d="M131.05,9.75c.04,1.1-.23,2.22.17,3.3v4.86c-.33,2.44-.31,4.88,0,7.33v1.65c-.29.49-.19,1.03-.19,1.55-.01,3.59-.02,7.18,0,10.77,0,.66-.16,1.35.19,1.97-.2,1.86-.09,3.59,1.86,4.58-.03.54.42.78.74.98,1.9,1.23,3.5,2.81,5.15,4.31,2.89,2.63,5.79,5.28,8.78,7.76,3.32,2.76,6.46,5.72,9.77,8.47,2.71,2.26,5.24,4.71,7.9,7.03.84.74,1.81,1.18,3.04.74,2.63-.93,3.02-4.32.76-6.12-3.07-2.45-5.96-5.14-8.9-7.75-1.34-1.2-2.51-2.61-3.95-3.68-3.07-2.29-5.86-4.91-8.72-7.42-2.82-2.48-5.78-4.81-8.47-7.45-.71-.7-1-1.22-1-2.12.02-7.15,0-14.3,0-21.46,0-4.92.02-9.85,0-14.78-.01-2.27-1.42-3.66-3.67-3.67-5.99-.01-11.98-.01-17.97-.01-2.87.01-3.86.96-3.88,3.8-.02,3.34.01,6.67-.01,10.01,0,.43.26,1.06-.37,1.26-.62.19-1.25.04-1.72-.48-.32-.35-.6-.75-.95-1.06-2.61-2.24-5.23-4.45-7.84-6.69-2.5-2.15-4.97-4.35-7.5-6.48-1.49-1.26-3.31-1.27-4.73-.03-1.23,1.06-2.48,2.1-3.68,3.17-2.61,2.36-5.15,4.8-7.75,7.18-2.51,2.3-4.99,4.66-7.47,7.01-4.29,4.07-8.7,8.02-13.05,12.03-2.76,2.55-5.55,5.07-8.22,7.71-1.3,1.27-2.9,2.2-3.99,3.7-.71-.14-1.15.3-1.61.74-1.37,1.33-2.53,2.88-4.29,3.76-.75.38-1.18.99-1.04,1.88-.35.08-.53.38-.77.61-2.24,2.16-4.44,4.35-6.72,6.46-3.37,3.11-6.8,6.16-10.18,9.25-2.05,1.87-4.09,3.75-6.07,5.7-1,.98-1.05,3.53-.24,4.43,1.28,1.41,2.95,1.49,4.54.2.55-.45,1.01-1.04,1.6-1.44.89-.6,1.4-1.63,2.44-2.03.23-.03.54.03.69-.1,1.34-1.14,2.29-2.8,4.26-3.09.11-.01.26-.16.3-.29.31-.89,1.03-1.21,2.36-1.34-1-.46-.89-1.01-.9-1.53,3.32-3.03,6.71-5.98,9.95-9.11,1.89-1.83,4.07-3.35,5.77-5.38.3-.84,1.01-1.46,1.68-1.83,1.1-.61,1.35-2.27,2.9-2.23,3.23-2.97,6.45-5.96,9.71-8.91,3.47-3.12,6.86-6.34,10.39-9.4,3.08-2.68,5.89-5.65,8.95-8.35,3.78-3.34,7.41-6.85,11.09-10.3,1.53-1.43,1.55-1.43,3.07-.08,2.75,2.46,5.51,4.92,8.29,7.34,1.54,1.35,3.2,2.57,4.71,3.96,2.67,2.46,5.37,4.9,8.06,7.35,1.21,1.1,2.43.84,3.55.38,1.1-.46,1.77-1.42,1.76-2.86-.08-5.41,0-10.82-.04-16.23,0-1.01.29-1.33,1.31-1.33,2.75,0,5.5.15,8.25-.09,1.42-.13,1.84.41,1.9,1.89ZM119.06,25.77h0c-.04.21-.08.42-.12.63-.04-.02-.1-.04-.11-.07-.08-.25.02-.42.23-.56V8.11c.43.19.27.49.27.7,0,5.25,0,10.5,0,15.75,0,.42.12.87-.27,1.21Z"/>
  <path class="cls-1" d="M95.26,164.96c-.87-2.76-5.01-6.58-8.26-6.66-3.61-.08-7.18-.24-9.97,2.78-1.65,1.77-2.79,3.7-3.21,6.09-.37,2.17-.24,4.33.02,6.48.56,4.64,3.62,7.89,7.64,8.81,3.24.74,6.83.92,9.78-1.53.89-1.03,1.75-2.09,2.87-2.89.78-.95,1.47-2.08,1.59-3.23.33-3.28.56-6.58-.46-9.85ZM90.52,175.46c-1.24,2.32-3.89,3.49-7.12,3.12-1.71-.19-3.92-2.21-4.39-4-1.72-1.98-1.2-4.29-.82-6.5.18-1,.33-2.2,1.42-2.83,1.62-3.01,6.03-3.84,8.69-1.79,3.87,2.97,4.34,8.02,2.22,12Z"/>
  <path class="cls-1" d="M18.87,180.93c-.45-.66-1.26-1.08-1.34-1.99-.25-2.43-2.19-3.94-3.29-5.93.96-.43,1.79-.96,2.16-1.97,1.22-.71,1.78-2.02,2.13-3.18.38-1.28.21-2.77.07-4.15-.24-2.36-3.6-5.28-5.97-5.29-2.8-.02-5.59-.02-8.38,0-.49,0-1.11-.23-1.36.49h9.71v.26c-2.68,0-5.36.05-8.04-.04-.57-.02-1.26.7-1.75-.15-.5.3-.27.78-.27,1.18-.02,6.62-.03,13.23-.03,19.85,0,2.57.02,2.57,2.64,2.56,1.71-.01,1.86-.16,1.86-1.94,0-2.17-.01-4.34-.01-6.52,0-.43-.02-.84.49-1.09.6-.3.93.12,1.25.41.31.28.5.7.72,1.07,1.39,2.37,2.77,4.75,4.16,7.12.3.51.65.94,1.33.93,1.07-.01,2.13.06,3.19,0,1.14-.06,1.38-.67.73-1.62ZM10.77,169.27c-.52.06-1.06.01-1.59.01v.02c-.33,0-.67-.03-1.01.01-1.11.11-1.61-.36-1.54-1.49.09-1.44.13-2.89.2-4.33.02-.45.11-.85.61-1.04,1.52-.57,4.68.19,5.82,1.21,1.11.99.97,2.16.65,3.29-.42,1.51-1.66,2.14-3.14,2.32Z"/>
  <path class="cls-1" d="M121.17,181.05c-1.37-2.21-2.78-4.41-4.19-6.59-.9-1.4-.82-1.99.59-2.77,2.05-1.12,3.07-2.84,3.36-5.13.48-3.82-2.39-7.82-6.14-8.1-2.93-.21-5.89-.05-8.83-.05-.72,0-1.16.22-.8,1.05.09.21.26.42.26.64.01,6.82.01,13.64-.3,20.47v-2.87c-.52.43-.44,1.03-.45,1.6-.04,3.2.05,3.22,3.2,3.29,1.2.02,1.36-.48,1.34-1.44-.04-2.17,0-4.35-.02-6.52-.01-.71-.02-1.52.79-1.62.55-.07,1.19.28,1.58.96,1.22,2.15,2.74,4.15,3.76,6.39.89,1.94,2.2,2.44,4.09,2.22.29-.03.58,0,.87,0,1.41-.05,1.62-.36.89-1.53ZM113.23,169.24c-.09.02-.19.02-.29.04-3.72.45-3.75.43-3.75-3.44.1-4.18-.64-3.37,3.53-3.4,2.13-.02,3.54,1.35,3.64,3.27.09,1.71-1.18,3.14-3.13,3.53Z"/>
  <path class="cls-1" d="M42.98,178.18c-.1-.07-.29-.05-.43-.01-2.77.78-5.55-.3-8.33,0-.78.08-1.12-.31-1.1-1.12.05-1.2.1-2.42,0-3.62-.1-1.08.46-1.33,1.33-1.33,1.35-.02,2.71,0,4.06-.01q2.85-.02,3.29-2.85s0-.1.02-.14c.7-1.25-.14-1.38-1.04-1.39-1.5-.02-3,0-4.49,0-3.21.02-3.12.02-3.18-3.24-.03-1.47.67-1.69,1.81-1.68,1.84.01,3.67.03,5.51,0,.85-.01,1.77.26,2.56-.18,1.07-.59.27-1.71.58-2.5.66-1.64-.31-1.73-1.49-1.72h-11.3c-2.19,0-2.16,0-2.14,2.13.02,3.43,0,6.86,0,10.29s.05,6.85-.03,10.28c-.02,1.03.31,1.43,1.31,1.43,4.29.01,8.58.03,12.88.05.79,0,.87-.56.75-1.09-.23-1.1.71-2.4-.57-3.3ZM42.5,158.58c.18.05.11.18.02.28-.18,0-.35-.01-.53-.02.09-.25.29-.32.51-.26Z"/>
  <path class="cls-1" d="M179.9,197.81v4.49c-3.38.02-6.76.05-10.14.05-54.92.01-109.83.01-164.75,0-1.04,0-2.12.22-3.14-.22.49-.02.97-.05,1.45-.05h174.71c.44,0,.91.16,1.52-.29h-66.87c-36.35,0-72.69-.01-109.03-.01.2-.88.92-.55,1.43-.55,57.36-.02,114.72-.01,172.08-.03.51,0,1.08.24,1.58-.25-1.11-.44-2.28-.26-3.42-.32v-.57c.07-.61.52-.59.95-.58.76,0,1.53-.05,2.29.01.9.07,1.21-.33,1.1-1.17,0-.16,0-.33.01-.49.08-.02.15-.03.23-.02Z"/>
  <path class="cls-1" d="M66.43,160.27s-.01.09-.02.14c-.23,2.35-.23,2.39-2.63,2.32-1.92-.05-3.84.19-5.76-.14-.71-.12-1.18.29-1.17,1.1.03,1.69.05,3.37.07,5.05,2.35.02,4.7.03,7.05.05.09-.03.18-.02.27.02.1.93-.19,1.89.18,2.8.15.92.06,1.32-1.15,1.13-1.5-.24-3.08-.06-4.62-.07-1.25-.01-1.86.56-1.84,1.84.04,2.03.03,4.06.02,6.09,0,1.68-.25,1.91-1.9,1.92-.54,0-1.07,0-1.6.03-.86.06-.97-.41-.82-1.1-.26-.75-.11-1.53-.11-2.29,0-6.04,0-12.07,0-18.1,0-.53-.11-1.07.14-1.57-.62-.25-.32-.51-.02-.8.4-.38.91-.25,1.37-.25,3.66-.02,7.32-.03,10.98-.02,1.57,0,1.8.3,1.56,1.85Z"/>
  <path class="cls-1" d="M105.12,180.57v-16.79c.02-1.44.03-2.88.04-4.32.09.21.26.42.26.64.01,6.82.01,13.64-.3,20.47Z"/>
  <path class="cls-1" d="M146.97,145.51c-.01-6.17-.01-12.34-.01-18.5.31.31.22.72.22,1.09.01,5.44.01,10.87,0,16.31,0,.38.09.78-.21,1.1Z"/>
  <path class="cls-1" d="M12.94,147.01c-.3.47-.78.29-1.19.29-2.31.02-4.62.03-6.93,0-.45-.01-1.15.3-1.18-.6,2.6,0,5.2-.01,7.8,0,.51,0,1.08-.2,1.5.3Z"/>
  <path class="cls-1" d="M50.02,46.94c-1.68.96-2.47,3.07-4.55,3.5.3-.84,1.01-1.46,1.68-1.83,1.1-.61,1.35-2.27,2.9-2.23-.01.19.06.51-.03.56Z"/>
  <path class="cls-1" d="M180,177.45c.01-1.37.02-2.73.02-4.09.75-.05,1.18.2,1.1,1.05-.11,1.11.43,2.46-1.12,3.04Z"/>
  <path class="cls-1" d="M94.13,178.04c-.03,1.9-.71,2.58-2.87,2.89.89-1.03,1.75-2.09,2.87-2.89Z"/>
  <path class="cls-1" d="M99.32,124.66c-.44.11-.65-.75-1.25-.25-.36.29-.45-.15-.46-.43-.02-.53-.02-1.05-.02-1.58.16-.01.33-.01.49-.01.11.55.24,1.07.93,1.15l-.02.04c.11.36.22.72.33,1.08Z"/>
  <path class="cls-1" d="M64.42,171.61c-.37-.91-.08-1.87-.18-2.8.61.9.27,1.86.18,2.8Z"/>
  <path class="cls-1" d="M105.12,163.78c0,.89,0,1.78,0,2.67-.3-.89-.3-1.78,0-2.67Z"/>
  <path class="cls-1" d="M105.12,173.35c0,.79,0,1.58,0,2.38-.29-.79-.29-1.58,0-2.38Z"/>
  <path class="cls-1" d="M91.8,139.78c-.27.3-.55.33-.84.03.28-.01.56-.02.84-.03Z"/>
  <path class="cls-1" d="M105.12,168.71c0,.12,0,.23,0,.35-.03-.08-.06-.16-.07-.24,0-.03.05-.07.07-.11Z"/>
  <path class="cls-1" d="M161.96,94.21c0,.18-.1.26-.27.27.09-.09.18-.18.27-.27Z"/>
  <path class="cls-1" d="M119.33,24.56c0,.42.12.87-.27,1.21V8.11c.43.19.27.49.27.7,0,5.25,0,10.5,0,15.75Z"/>
  <path class="cls-1" d="M119.06,25.77h0c-.04.21-.08.42-.12.63-.04-.02-.1-.04-.11-.07-.08-.25.02-.42.23-.56Z"/>
  <path class="cls-1" d="M99.01,123.54c-.69-.08-.82-.6-.93-1.15.81-.02.88.56.93,1.15Z"/>
  <path class="cls-1" d="M78.9,172.45c.33.65.13,1.41.11,2.13-1.72-1.98-1.2-4.29-.82-6.5.18-1,.33-2.2,1.42-2.83,0,1.14-.49,2.2-.78,3.25-.38,1.4-.59,2.61.07,3.95Z"/>
  <path class="cls-1" d="M12.6,158.91v.26c-2.68,0-5.36.05-8.04-.04-.57-.02-1.26.7-1.75-.15l.08-.07h9.71Z"/>
  <path class="cls-1" d="M42.52,158.86c-.18,0-.35-.01-.53-.02.09-.25.29-.32.51-.26.18.05.11.18.02.28Z"/>
  <path class="cls-1" d="M179.55,201.79c-.61.45-1.08.29-1.52.29H3.32c-.48,0-.96.03-1.45.05-.25,0-.5-.03-.54-.36.19.01.39.01.58.01h1.74c36.34,0,72.68.01,109.03.01h66.87Z"/>
  <path class="cls-1" d="M3.06,197.81c-.29.38-.9.04-1.15.51v3.46c-.19,0-.39,0-.58-.01-.02-.8.02-1.6-.06-2.4-.15-1.41.43-1.92,1.79-1.56Z"/>
  <path class="cls-1" d="M129.83,181.07c.42-.86.25-1.71.26-2.55.04-4.48.65-8.93.76-13.42.05-1.86.33-3.78.41-5.68.03-.74.39-1.04,1.1-1.03,1.11.01,2.22,0,3.33,0,1.57.02,1.96,1.22,2.44,2.39,1.13,2.72,2.3,5.43,3.47,8.14.21.47.6.85.6,1.43,0,.39.11.8.66.77.42-.03.49-.36.62-.69.82-2.06,1.73-4.1,2.48-6.19.54-1.53,1.77-2.8,1.66-4.6-.05-.84.92-.83,1.44-1.18.15-.09.38-.06.57-.06,1.26.02,2.79-.4,3.68.17.87.56.03,2.22.32,3.34,1.32,5.01.33,10.18,1.04,15.21.23,1.64-.01,3.24.18,4.85.07.61-.35.6-.73.61-.97.01-1.94.07-2.9-.02-1.18-.1-1.12-1.16-1.13-1.91-.05-4.32-.02-8.63-.02-12.95-.24-.05-.48-.1-.72-.14-.87,1.27-1.36,2.77-1.85,4.2-.75,2.21-1.74,4.3-2.72,6.4-.67,1.45-3.25,1.38-3.93-.14-1.54-3.39-2.93-6.85-4.36-10.3-.15-.37-.23-.77-.71-.77-.58,0-.53.48-.53.84.01,3.81-.83,7.57-.64,11.38,0,.19,0,.39-.01.58-.06,2.64-1.45,3.62-4,2.78-.68-.22-1.04-.92-.77-1.46Z"/>
  <path class="cls-1" d="M179.67,197.83c-.01.16-.01.33-.01.49.11.84-.2,1.24-1.1,1.17-.76-.06-1.53-.01-2.29-.01-.43-.01-.88-.03-.95.58v.57c1.14.06,2.31-.12,3.42.32-.5.49-1.07.25-1.58.25-57.36.02-114.72,0-172.08.03-.51,0-1.23-.33-1.43.55h-1.74v-3.46c.25-.47.86-.13,1.15-.51-1.36-.36-1.94.15-1.79,1.56.08.8.04,1.6.06,2.4.04.33.29.36.54.36,1.02.44,2.1.22,3.14.22,54.92.01,109.83.01,164.75,0,3.38,0,6.76-.03,10.14-.05.02.41-.16.64-.59.64-.48.01-.96.01-1.45.01-58.46,0-116.92,0-175.38,0-2.19,0-2.94-1.64-2.21-3.93.58-1.83,1.63-1.91,3.23-1.91,58.18.04,116.35.03,174.52.06.62,0,1.61-.58,1.88.63-.08-.01-.15,0-.23.02Z"/>
  <path class="cls-1" d="M180.02,173.36c0,1.36,0,2.72-.02,4.09-1.16,3.27-2.85,5.22-7.47,5.36-3.67.11-7.06-.38-9.45-3.62-.47-.64-.75-1.16-.11-1.72.78-.7,1.68-1.27,2.49-1.93.5-.41.53.15.75.3,1.14.79,1.71,2.22,3.26,2.59,1.87.45,3.63.36,5.25-.63,1.25-.76.84-3.78-.47-4.44-2.67-1.36-5.83-1.53-8.26-3.45-.88.11-1.24-.29-1.12-1.15-1.62-3.15-1.35-6.05,1.14-8.66.76-.8,1.71-1.48,2.72-1.63,2.8-.44,5.62-.65,8.23.94,1.37.83,2.28,2.02,2.89,3.43.46,1.06-.3,2.1-1.99,2.81-.96.4-1.55.04-2.05-.93-1.15-2.24-3.61-3.07-5.65-1.82-1.62.99-1.78,2.5-.58,3.48.8.65,1.66,1.02,2.68,1.29,2.64.72,5.33,1.44,7.15,3.81.46.61.48,1.23.61,1.88Z"/>
</svg>