<?xml version="1.0" encoding="UTF-8"?>
<svg id="Capa_1" data-name="Capa 1" xmlns="http://www.w3.org/2000/svg" viewBox="0 0 312.42 270.71">
  <path d="M312.35,34.37C311.47,15.82,295.7.39,277.23,0c-4.43-.09-6.44,1.78-6.46,6.16-.03,7.27-.15,14.54.07,21.8.08,2.74-.67,3.32-3.35,3.31-44.25-.09-88.5-.06-132.75-.06-30.05,0-60.09-.04-90.13.06-2.41,0-3.07-.53-3.01-2.99.19-7.26.08-14.53.06-21.8-.01-4.79-1.96-6.61-6.8-6.46C15.48.61.05,16.85.03,36.98c-.05,65.93-.02,131.87-.03,197.81,0,2.94.3,5.84,1.01,8.69,4.08,16.39,17.92,27.18,35.14,27.2,39.91.05,79.83.02,119.74.02s79.39-.01,119.09.01c3.48,0,6.92-.19,10.31-1.04,16.55-4.2,27.11-17.96,27.12-35.54.02-65.39.01-130.79.01-196.18,0-1.2-.02-2.39-.07-3.58ZM301.97,236.26c-.47,13.61-11.49,23.99-25.68,24.01-40.02.04-80.05.01-120.08.01s-79.83.02-119.75,0c-12.46-.01-22.57-7.59-25.29-18.88-2.95-12.2,2.34-24.33,13.14-30.12,3.39-1.81,7.02-2.81,10.86-3.02,4.92-.27,6.49-1.9,6.49-6.86.01-52.07.03-104.13-.06-156.19-.01-2.94.69-3.66,3.65-3.66,73.97.09,147.95.09,221.93,0,2.95,0,3.66.71,3.65,3.66-.09,51.84-.07,103.69-.07,155.53,0,5.86,1.21,7.12,7.14,7.54,14.23,1.02,24.6,13.06,24.07,27.98Z" style="fill: #FFD057; stroke-width: 0px;"/>
  <path d="M260.35,80.02v141.86c0,5.55-1.61,7.16-7.14,7.17-14.64,0-29.28.01-43.92,0-3.58-.01-5.76-1.65-6.17-4.5-.47-3.36,2.06-5.89,6.06-5.9,12.48-.03,24.95-.08,37.42.06,2.57.02,3.42-.41,3.41-3.25-.12-30.91-.1-61.82-.03-92.73,0-2.37-.29-3.41-3.05-3.96-16.91-3.37-29.51-16.32-32.68-33.37-.36-1.92-1.1-2.16-2.73-2.15-7.16.07-14.32.12-21.47-.02-2.17-.05-2.66.59-2.64,2.68.1,12.69.06,25.37.04,38.06-.01,3.91-2.28,6.36-5.53,6.14-3.02-.2-4.86-2.45-4.87-6.14-.02-12.47-.1-24.95.06-37.42.04-2.68-.58-3.36-3.31-3.34-20.5.13-41,.12-61.5.01-2.41-.01-3.05.53-3.01,2.98.15,10.74.08,21.48.06,32.21-.01,4.67-1.83,6.51-6.48,6.51-12.58.02-25.16.06-37.75-.04-2.07-.01-2.7.47-2.68,2.64.11,12.14.11,24.29,0,36.44-.01,2.09.49,2.69,2.65,2.67,12.69-.11,25.38-.06,38.07-.04,3.57,0,5.74,1.65,6.14,4.51.47,3.34-2.08,5.87-6.08,5.88-12.47.03-24.95.1-37.42-.05-2.62-.03-3.43.47-3.38,3.27.18,11.93.12,23.86.03,35.79-.02,2.04.4,2.72,2.61,2.71,19.09-.1,38.18-.09,57.27-.01,2.05.01,2.77-.41,2.7-2.62-.17-5.74-.08-11.49-.05-17.24.02-3.85,1.97-6.16,5.14-6.2,3.18-.04,5.23,2.28,5.26,6.08.04,5.64.11,11.28-.04,16.92-.07,2.27.3,3.12,2.9,3.09,12.04-.17,24.08-.12,36.12-.04,1.98.02,2.75-.3,2.74-2.57-.1-19.09-.09-38.18-.02-57.26.01-1.99-.31-2.77-2.58-2.74-12.14.13-24.29.14-36.44-.01-2.43-.02-2.78.81-2.72,2.94.15,5.63.07,11.28.04,16.92-.02,3.85-1.97,6.17-5.12,6.22-3.18.05-5.26-2.27-5.27-6.07-.04-8.13-.05-16.26,0-24.4.02-4.01,1.97-5.94,6.04-5.94,30.7-.03,61.39-.02,92.09,0,3.61,0,5.87,1.99,5.97,5.03.1,3.17-2.25,5.34-5.99,5.36-10.96.03-21.91.08-32.87-.05-2.27-.03-2.84.53-2.83,2.82.1,21.04.06,42.08.05,63.12,0,5.33-1.66,7-6.97,7-40.45,0-80.91,0-121.37,0-5.35,0-7.03-1.64-7.03-6.93v-100.54c0-5.49,1.62-7.06,7.23-7.06,12.15-.01,24.29-.11,36.44.08,2.84.04,3.29-.83,3.25-3.41-.15-10.52-.07-21.04-.06-31.56.01-5.07,1.73-6.76,6.88-6.76,24.62,0,49.24,0,73.86,0s49.03,0,73.54,0c5.53,0,7.13,1.61,7.13,7.16Z" style="fill: #FFD057; stroke-width: 0px;"/>
</svg>