<?xml version="1.0" encoding="UTF-8"?>
<svg id="Capa_1" data-name="Capa 1" xmlns="http://www.w3.org/2000/svg" viewBox="0 0 369.01 370.51">
  <path d="M368.77,285.29c-.34-2.44-.32-5-.01-7.45,1.03-8.04-1.52-13.13-10.03-15.31-6.22-1.6-12.51-17.1-9.39-22.75,3.89-7.02,3.42-12.54-3.23-17.39-1.98-1.45-3.78-3.3-5.27-5.26-5.4-7.11-11.38-9.35-19.63-4.12-4.15,2.63-20.34-3.96-21.4-8.73-2.21-9.97-8.39-12.54-17.5-11.26-1.71.24-3.48-.04-5.21.04-2.6.14-3.75-.79-2.92-3.49,1.02-3.32,1.88-6.37,6.1-7.52,4.99-1.35,9.66-3.87,14.59-5.51,4.49-1.49,6.13-4.31,6.05-8.94-.19-11.18-.3-22.38.04-33.56.16-5.43-2-8.79-7-9.8-13.13-2.65-19.01-10.84-24.24-23.16-5.32-12.52-6.29-22.49.95-33.59,2.93-4.49,1.53-8.25-2.21-11.83-7.55-7.22-15.08-14.48-22.14-22.16-4.42-4.82-8.7-6.1-14.26-2.42-10.16,6.71-19.43,5.33-30.87.74-13.03-5.24-22.1-11.42-24.75-25.6-.91-4.86-4.69-6.3-9.59-6.17-10.69.27-21.4.38-32.07-.03-5.99-.24-9.59,1.89-10.82,7.65-2.64,12.4-10.24,18.22-22.16,23.29-12.93,5.49-23.36,6.86-34.94-.82-4.28-2.84-7.78-1.15-11.13,2.34-7.57,7.89-15.29,15.65-23.21,23.19-3.84,3.65-4.88,7.4-2.1,11.87,6.88,11.07,6.33,21.01.88,33.52-5.33,12.21-11.11,20.58-24.28,23.17C1.88,125.25-.11,128.73,0,134.03c.24,10.93.21,21.88.01,32.82-.1,5.17,1.52,8.72,6.85,9.9,12.82,2.84,19.24,10.6,24.39,23.15,5.1,12.43,6.42,22.41-.76,33.5-3.13,4.83-1.52,8.68,2.45,12.44,7.57,7.18,15.01,14.53,22.13,22.16,4.04,4.33,8.12,5.46,13.14,2.35,10.59-6.57,20.05-5.85,32.09-.88,12.92,5.34,21.41,11.67,24.21,25.27.95,4.63,4.21,6.39,8.77,6.33,6.21-.08,12.43,0,18.65,0,21.7,0,21.8.04,29.76-20.15,1.57-3.98,3.95-6.91,7.99-6.15,4.17.78,2.03,5.07,1.81,7.42-.93,9.92.48,17.63,12.3,19.78,3.75.68,9.73,17.29,7.6,20.63-5.43,8.52-2.94,14.75,4.49,20.3,2.36,1.76,4.46,4,6.32,6.31,3.86,4.77,7.97,5.6,13.67,2.85,9.5-4.59,22.43.92,26.03,10.98,2,5.61,5.25,8.04,11.12,7.37,2.45-.29,4.97-.05,7.45-.05q13.17,0,19.62-12.15c2.02-3.8,17.22-10.02,20.78-7.73,8.51,5.47,14.72,3.04,20.24-4.38,1.47-1.98,3.29-3.8,5.27-5.26,6.34-4.7,6.82-10.01,3.09-16.78-3.13-5.7,2.85-21.24,8.99-22.85,8.77-2.3,11.43-7.57,10.3-15.91ZM216.45,216.94c.38-.38.76-.77,1.15-1.15.89-.81,1.47-3.05,2.91-1.78,1.43,1.25-.39,2.18-1.41,2.95l-1.5,1.5c-.62,1.08-1.82,2.54-2.68,1.68-1.64-1.63.68-2.25,1.53-3.2ZM151.23,231.84c-44.65.47-81.44-35.62-81.87-80.3-.43-45.1,35.78-82.17,80.61-82.53,44.39-.34,81.37,35.96,82.01,80.52.65,44.82-35.66,81.83-80.75,82.31ZM280.15,248.3c18.4-.01,33.57,15.4,33.32,33.86-.25,18.64-15.38,33.26-34.09,32.95-18.23-.31-32.63-15.25-32.48-33.72.15-18.23,15.07-33.08,33.25-33.09ZM183.81,263.39c-6.94,1.4-10.46,5.17-12.74,11.7-4.88,13.96-5.18,13.86-20.04,13.86-15.96,0-16.2.08-21.62-14.96-2.08-5.76-5.16-8.89-11.26-10.26-8.72-1.97-17.15-5.34-24.65-10.24-5.53-3.61-10.25-3.22-15.93-.53-13.93,6.6-14.02,6.39-25.16-4.75s-10.99-10.85-4.38-24.6c2.88-6.01,2.93-10.91-.77-16.6-4.59-7.08-7.82-15.02-9.68-23.28-1.45-6.46-4.62-10.12-11.1-12.34-14.44-4.94-14.32-5.31-14.32-20.53s-.07-15.9,15.08-21.48c5.4-1.99,8.59-4.8,9.92-10.68,1.98-8.72,5.24-17.19,10.13-24.69,3.73-5.72,3.55-10.61.7-16.6-6.57-13.76-6.31-13.88,4.4-24.6,11.1-11.1,11.23-11.37,25.72-4.46,5.57,2.65,10.05,2.68,15.22-.64,7.34-4.71,15.46-8.09,23.93-10.04,6.49-1.5,10.11-4.62,12.34-11.09,5.02-14.6,5.39-14.48,21.05-14.48s15.46-.1,20.45,14.05c2.32,6.57,6.04,10.07,12.86,11.56,8.26,1.81,16.16,5.15,23.26,9.73,5.42,3.5,10.04,3.63,15.89.85,14.24-6.77,14.38-6.49,25.62,4.75,10.53,10.53,10.85,10.68,4.17,24.48-2.94,6.08-2.79,10.91.8,16.55,4.54,7.13,7.9,15.02,9.67,23.29,1.41,6.58,4.78,10.13,11.08,12.38,14.53,5.19,14.44,5.46,14.44,20.96s.11,15.72-14.1,20.59c-6.34,2.18-9.96,5.45-11.34,12.1-1.56,7.55-4.84,14.59-8.43,21.42-4.61,8.77-10.33,10.91-19.37,6.71-4.16-1.94-7.93-2.5-12.45.8,35.16-61.42,28.5-113.04-36.32-147.17-37.03-19.5-83.6-5.54-109.33,27.13-26.35,33.46-27.49,79.08-2.62,112.93,15.95,21.72,37.4,34.77,64.15,38.02,26.5,3.21,50.45-4.12,72.24-20.14-4.47,5.65-3.43,10.47-.72,15.81,3.33,6.56,1.14,12.47-5.41,15.97-6.8,3.63-13.83,7.01-21.38,8.52Z" style="fill: #FFD057; stroke-width: 0px;"/>
  <path d="M191.98,133.85c.11,3.78-2.11,7.59-5.35,10.85-10.86,10.93-21.68,21.9-32.71,32.64-7.1,6.9-15.83,7.28-23.4.68-6.35-5.53-12.34-11.57-17.95-17.86-5.88-6.6-5.29-15.52.72-21.52,6-6,16.16-6.75,22.01-.1,5.55,6.32,8.63,4.43,13.14-.62,5.45-6.1,11.39-11.79,17.44-17.31,5.08-4.65,11.17-5.36,17.3-2.23,5.76,2.93,8.84,7.8,8.8,15.47Z" style="fill: #FFD057; stroke-width: 0px;"/>
</svg>