<?xml version="1.0" encoding="UTF-8"?>
<svg id="Capa_1" data-name="Capa 1" xmlns="http://www.w3.org/2000/svg" viewBox="0 0 227.79 224.55">
  <path d="M209.03,82.86c-1.41,4.52-5.88,7.58-11.25,7.64-3.46.04-6.93.07-10.39-.02-1.3-.03-1.67.37-1.62,1.64.1,2.42.01,4.85.04,7.28.02,1.04.02,1.6-1.42,1.37-6.53-1.07-13.1-1.36-19.66-.24-1.03.18-1.34-.13-1.33-1.14.03-6.94-.04-13.87.06-20.8.03-2.41.9-4.7,2.64-6.39,1.37-1.32.77-1.84-.4-2.69-7.64-5.51-15.24-11.08-22.84-16.64-.39-.28-.75-.61-1.12-.91-1.56-1.15-3.12-2.29-4.68-3.43-9.33-6.77-18.67-13.53-28-20.31-4.38-3.19-4.36-3.19-8.67-.05-4.5,3.29-9.04,6.53-13.56,9.79-.28.21-.56.42-.84.63-.82.59-1.65,1.18-2.47,1.77-1.11.81-2.22,1.62-3.33,2.44-1.83,1.53-3.74,2.94-5.78,4.18-2.11,1.83-4.38,3.42-6.71,4.94-8.52,6.27-17.04,12.54-25.68,18.9,3.38,2.74,4.19,6.26,4.17,10.29-.08,22.03-.03,44.06-.03,66.09,0,.56-.07,1.11-.1,1.66.01.55.01,1.11.02,1.66.03,2.29.17,4.58.04,6.86-.1,1.63.49,1.91,1.99,1.91,17.88-.06,35.76-.01,53.64-.09,1.98-.01,2.5.25,2.1,2.4-1.12,6.04-1.02,12.14.06,18.19.23,1.31.24,1.89-1.44,1.89-22.31-.06-44.63-.02-66.95-.05-6.88-.01-11.64-4.68-11.65-11.63-.06-25.64-.05-51.28.02-76.93.01-2.1-.5-2.73-2.61-2.6-3.11.19-6.24.06-9.35.04-5.51-.04-9.77-2.96-11.36-7.75-1.57-4.75.17-9.57,4.71-12.9,10.1-7.42,20.21-14.84,30.36-22.2,1.18-.86,1.67-1.73,1.66-3.22-.09-7.07-.02-14.14-.06-21.21-.01-1.22.11-1.83,1.62-1.81,6.38.09,12.76.07,19.13.01,1.3-.02,1.69.36,1.63,1.63-.09,2.21-.02,4.43-.02,6.67.91.01,1.34-.61,1.87-.99,12.14-8.74,24.26-17.51,36.39-26.27,4.47-3.22,9.27-3.33,13.68-.12,13.9,10.09,27.77,20.24,41.64,30.37.22.16.41.36.61.54,1.41,1.03,2.83,2.05,4.24,3.08,9.91,7.2,19.84,14.4,29.75,21.61,5.55,4.04,11.09,8.07,16.62,12.14,4.36,3.21,6.09,8.05,4.63,12.77Z" style="fill: #FFD057; stroke-width: 0px;"/>
  <path d="M227.32,163.73c-3.63-28.62-28.97-49.2-57.81-46.99-30.7,2.36-53.26,30.12-49.3,60.67,4.84,37.35,45.7,58.55,78.87,40.72,15.37-8.26,24.71-21.2,27.81-38.48.04-.42.09-.83.14-1.25,1.02-4.87.92-9.78.29-14.67ZM209.59,158.36c-14.08,14.02-28.13,28.08-42.17,42.15-.72.73-1.15.87-1.96.06-9.18-9.23-18.38-18.44-27.62-27.62-.81-.8-.66-1.26.06-1.97,3.66-3.6,7.3-7.2,10.87-10.88.84-.87,1.26-.59,1.94.1,3.38,3.38,6.79,6.72,10.18,10.08.93.91,1.85,1.83,2.77,2.74q2.62,3.08,5.35.34c9.16-9.16,18.33-18.3,27.45-27.5,1.03-1.04,1.57-1.27,2.71-.07,3.38,3.57,6.89,7.02,10.41,10.45.84.82.86,1.27.01,2.12ZM225.62,180.49c.1.34.14.74.15,1.17.04,1.28-.74,1.99-1.58,2.64.83-.7,1.58-1.59,1.37-3.65-.02-.16-.03-.3-.04-.44-.28-.64-.85-1.03-1.98-.9,1.18-.16,1.73.19,1.94.62,0-.1-.03-.2-.04-.29h-.09c.01-.23,0-.45-.04-.65-.15-.51-.38-.8-.77-.93.48.14.69.49.77.93.05.18.09.4.13.65.43,0,.87,0,1.31.01-.44,0-.86.07-1.13.84Z" style="fill: #FFD057; stroke-width: 0px;"/>
</svg>