<?xml version="1.0" encoding="UTF-8"?>
<svg id="Capa_1" data-name="Capa 1" xmlns="http://www.w3.org/2000/svg" viewBox="0 0 355.59 383.18">
  <defs>
    <style>
      .cls-1, .cls-3 {
        fill: #14243A;
      }

      .cls-1, .cls-2, .cls-3, .cls-4 {
        stroke-width: 0px;
      }

      .cls-2 {
        fill: #FFD057;
      }

      .cls-4 {
        fill: transparent;
      }
    </style>
  </defs>
  <path class="cls-3" d="M247.45,125.11c4.46-3.38,6.82-3.07,10.27,1.45,31.74,41.58,63.47,83.17,95.23,124.73,2.08,2.72,3.61,5.49,1.93,8.9-1.74,3.54-4.95,4.11-8.53,4.03-5.48-.11-10.97.12-16.45-.09-2.59-.1-3.03.85-3.02,3.18.07,25.93.06,51.85.02,77.78,0,1.8.02,2.86,2.45,2.99,7.3.39,11.88,5.22,12.09,12.55.16,5.36-.05,10.72.06,16.08.06,2.94-1.61,4.75-3.57,6.48H17.67c-2.67-2-3.75-4.59-3.6-7.98.21-4.85-.06-9.73.09-14.58.22-7.33,4.78-12.16,12.09-12.55,2.41-.13,2.47-1.18,2.46-2.98-.05-11.34.05-22.69-.07-34.03-.04-3.35.9-5.84,4.05-7.25,5.37.17,7.12,1.9,7.21,7.22.04,2.49.1,4.98-.02,7.46-.1,1.98.71,2.55,2.62,2.53,12.93-.11,25.86-.14,38.79-.19,19.18.05,38.35.08,57.53.19,1.93.01,2.62-.59,2.61-2.55-.03-3.98-.06-7.98.29-11.94,1.61-18.56,15.91-32.02,34.87-32.95,16.92-.83,32.77,11.85,36.13,29.06.96,4.9.95,9.93.67,14.9-.16,2.87.82,3.53,3.58,3.51,15.94-.13,31.88-.07,47.83-.05,4.93,0,6.21,1.11,7.31,6.07-1.15,4.04-3.99,5.19-7.95,5.17-15.69-.11-31.38.04-47.07-.12-3.02-.03-3.9.91-3.67,3.78.23,2.85.23,5.74,0,8.58-.22,2.76.62,3.6,3.48,3.58,17.18-.14,34.37-.07,51.56-.07,14.69,0,29.39-.05,44.08.05,2.35.01,3.36-.52,3.2-3.07-.21-3.35-.16-6.73-.01-10.08.1-2.16-.72-2.76-2.8-2.73-7.1.1-14.2-.01-21.29.06-3.72.04-6.25-1.35-7.09-5.16.78-4.66,2.25-6.02,6.82-6.04,7.2-.04,14.41-.05,21.61.01,1.73.01,2.78-.21,2.76-2.37-.13-14.9-.15-29.8-.21-44.7.06-2.11-.08-4.25.2-6.33.72-5.19-1.31-9.14-4.44-13.21-26.5-34.45-52.78-69.06-79.2-103.58-2.11-2.76-2.98-5.38-1.21-8.54,4.6-3.17,6.69-2.79,10.29,1.93,26.99,35.37,53.97,70.74,80.97,106.09.73.96,1.17,2.53,2.53,2.56,4.88.13,9.76.05,15.21.05-1.11-1.56-1.73-2.48-2.4-3.36-29.33-38.44-58.64-76.89-88.02-115.3-2.17-2.83-3.86-5.53-2.03-9.14ZM81.29,347.86c19.17.04,38.34.06,57.51.16,1.9,0,2.68-.52,2.61-2.52-.12-3.61-.12-7.22,0-10.83.07-2.02-.75-2.52-2.63-2.51-19.17.1-38.34.13-57.51.17-12.92-.05-25.85-.06-38.77-.17-1.9-.02-2.68.55-2.61,2.54.12,3.6.12,7.21,0,10.81-.07,2.01.74,2.52,2.63,2.5,12.92-.1,25.85-.11,38.77-.16ZM176.31,347.86c7.85.04,15.7.02,23.55.17,2.14.04,2.42-.88,2.41-2.67-.06-11.97.2-23.94-.12-35.9-.27-10.12-4.85-17.84-14.33-22.2-15.92-7.99-34.51,3.51-35.13,22.03-.4,12.04-.06,24.11-.13,36.17-.01,1.9.5,2.62,2.5,2.58,7.08-.15,14.16-.13,21.25-.17ZM66.33,359.35c-10.43-.06-20.87-.13-31.3-.16-10.35-.03-10.31,0-9.76,10.41.09,1.69.45,2.43,2.3,2.41,12.92-.11,25.84-.13,38.76-.18,1.62.05,3.24.14,4.85.14,83.68,0,167.36,0,251.04,0,8.07,0,7.84,0,8.15-8.16.15-3.89-1.04-4.72-4.79-4.72-85.05.11-170.1.09-255.15.09-1.37,0-2.74.1-4.1.16Z"/>
  <path class="cls-1" d="M224.05,133.77c-7.27,5.06-12.15,4.62-18.44-1.66-.79-.79-1.62-1.55-2.37-2.38-.78-.86-1.54-.96-2.63-.47-1.12.51-1.91.99-1.85,2.4.08,1.99.07,3.98,0,5.97-.23,6.07-4.74,11-10.81,11.24-6.71.27-13.44.24-20.15.02-6.27-.21-10.81-5.13-11-11.42-.05-1.74-.05-3.48,0-5.22.04-1.34-.22-2.29-1.64-2.96-1.48-.7-2.32-.19-3.21.83-.41.47-.88.88-1.32,1.32-7.54,7.52-12.49,7.74-20.57.91-1.45-1.53-2.91-3.04-4.33-4.59-3.91-4.24-8.96-7.57-10.79-13.48-.39-5.65,2.41-9.7,6.47-13.19,1.19-1.02,2.53-2,1.57-4.06-.87-1.87-2.37-1.45-3.8-1.48-1.62-.04-3.25.08-4.86-.05-6.09-.49-10.59-4.73-10.86-10.8-.3-6.71-.29-13.46-.03-20.18.25-6.38,4.88-10.66,11.41-11.08,1.99-.13,3.99.07,5.98-.08,2.23-.17,3.19-2.5,1.73-4.22-1.37-1.61-3.01-2.98-4.4-4.57-4.17-4.78-4.31-10.91-.01-15.55,4.48-4.84,9.18-9.51,14.01-14,4.76-4.43,10.97-4.29,15.87.04,1.4,1.24,2.68,2.61,4,3.93.79.79,1.41,1.6,2.84.88,1.24-.62,2.06-1.15,1.96-2.71-.12-1.99-.09-3.99,0-5.98.26-6.05,4.91-10.87,10.98-11.03,6.6-.18,13.21-.17,19.81,0,6.23.15,10.92,5.02,11.16,11.27.07,1.74.06,3.49,0,5.23-.04,1.44.06,2.49,1.8,3.15,1.58.61,2.26-.05,3.15-.97,1.21-1.26,2.42-2.51,3.72-3.68,4.97-4.47,11.25-4.57,16.16.01,4.64,4.34,9.12,8.86,13.49,13.46,4.72,4.97,4.6,11.32-.1,16.42-1.27,1.37-2.57,2.72-3.96,3.96-1.08.96-.82,1.95-.4,3.03.42,1.07,1.19,1.43,2.34,1.39,1.99-.07,4-.11,5.98.05,6.65.52,11.03,5.03,11.18,11.69.14,6.23.14,12.46,0,18.69-.16,6.85-4.69,11.36-11.53,11.69-1.62.08-3.24.07-4.86,0-1.47-.07-2.62.11-3.24,1.76-.56,1.48.06,2.33,1.05,3.22.83.75,1.56,1.61,2.39,2.37,3.92,3.58,5.45,7.9,4.1,13.12-1.19,2.47-2.89,4.53-4.84,6.46-3.76,3.72-7.42,7.54-11.12,11.32ZM215.63,125.9c.55-.5,1.12-.98,1.64-1.5,1.95-1.93,3.9-3.85,5.81-5.82,1.99-2.05,5.24-3.98,5.52-6.26.29-2.41-3.47-4.09-5.3-6.22-.24-.28-.54-.52-.79-.8-4.59-5.05-.33-19.04,6.31-20.65.96-.23,1.98-.25,2.97-.26,2.24-.04,4.49-.09,6.73,0,1.7.07,2.51-.42,2.48-2.29-.08-5.11-.06-10.22-.01-15.33.02-1.58-.56-2.25-2.18-2.19-2.49.08-4.99.08-7.48,0-7.06-.24-13.87-13.14-10.13-19.2.58-.94,1.39-1.75,2.17-2.55,1.38-1.44,2.74-2.92,4.25-4.2,1.68-1.42,1.43-2.45-.06-3.86-3.35-3.16-6.7-6.36-9.77-9.79-1.86-2.08-2.94-1.7-4.63.13-9.75,10.5-9.85,7.69-19.18,4.09-.35-.13-.68-.31-1.03-.44-3.56-1.35-5.21-3.98-5.4-7.72-.16-3.19,1.44-7.55-.68-9.24-2.01-1.59-6.18-.58-9.4-.49-3.07.08-7.13-1.38-8.93.61-1.51,1.67-.52,5.66-.55,8.62-.03,4.05-1.76,6.94-5.64,8.33-9.88,3.55-9.79,7.26-20.19-3.91-.17-.18-.37-.34-.52-.54-1.07-1.43-2-1.36-3.26-.05-3.53,3.69-7.16,7.3-10.83,10.85-1.15,1.11-1.3,1.84-.05,2.98,1.94,1.75,3.78,3.62,5.55,5.55,4.62,5.05.23,19.06-6.45,20.61-.96.22-1.98.22-2.98.23-2.24.03-4.49.1-6.73-.02-1.76-.09-2.46.52-2.43,2.33.08,4.98.1,9.97,0,14.95-.04,1.99.7,2.63,2.62,2.54,2.49-.12,4.98-.02,7.48,0,3.31.02,6.05,1.41,7.08,4.52,1.6,4.84,6.1,9.32,2.52,15.03-.52.83-1.3,1.5-2,2.21-1.48,1.51-2.9,3.1-4.51,4.47-1.43,1.22-1.25,2.03.03,3.25,3.43,3.27,6.84,6.56,10.02,10.06,1.77,1.94,2.8,1.96,4.61,0,9.67-10.44,9.69-7.79,19.52-4.06.23.09.45.2.68.29,3.7,1.42,5.34,4.18,5.48,8.07.11,3.07-1.39,7.26.61,8.91,1.88,1.55,5.92.61,9,.56,3.21-.05,7.29,1.36,9.37-.55,1.94-1.78.48-5.89.56-8.96.11-3.92,1.81-6.65,5.51-8.03,10.35-3.89,10.27-6.85,20.23,3.76.43.45.86.9,1.33,1.31.27.24.62.4,1.02.66Z"/>
  <path class="cls-3" d="M123.13,140.93c3.41,3.79,3.47,5.76.17,10.09-26.93,35.32-53.86,70.65-80.86,105.93-1.76,2.3-2.67,4.53-2.59,7.46.19,6.47.1,12.94.04,19.42-.04,5.28-1.9,7.1-7.18,7.29-3.02-1.48-4.19-3.85-4.08-7.24.19-5.72-.02-11.46.09-17.18.04-1.94-.51-2.59-2.5-2.55-5.98.12-11.95-.01-17.93.06-3.24.04-5.94-.88-7.49-3.87-1.57-3.02-.68-5.73,1.29-8.3,32.1-42.02,64.19-84.05,96.23-126.11,2.52-3.31,5.41-3.53,8.86-1.98,2.72,3.6,1.75,6.69-.83,10.06-29.31,38.25-58.52,76.57-87.73,114.9-.86,1.12-2.13,2.07-2.34,4.05,3.94,0,7.76-.18,11.56.06,2.67.17,4.25-.8,5.85-2.91,26.82-35.29,53.75-70.5,80.58-105.79,2.36-3.11,4.88-4.93,8.85-3.4Z"/>
  <path class="cls-2" d="M230.89,142.27c-.28-.43-.56-.86-.84-1.29,3.96-4.99,8.89-9.04,13.21-13.68,1.08-1.16,2.57-2.06,2.71-3.88.49.56.98,1.12,1.47,1.68-1.83,3.61-.13,6.31,2.03,9.14,29.38,38.4,58.69,76.85,88.02,115.3.67.88,1.29,1.8,2.4,3.36-5.45,0-10.33.08-15.21-.05-1.36-.04-1.8-1.61-2.53-2.56-27-35.35-53.99-70.73-80.97-106.09-3.6-4.72-5.69-5.1-10.29-1.93Z"/>
  <path class="cls-2" d="M123.13,140.93c-3.98-1.53-6.49.3-8.85,3.4-26.83,35.28-53.76,70.49-80.58,105.79-1.6,2.11-3.18,3.08-5.85,2.91-3.8-.24-7.62-.06-11.56-.06.21-1.98,1.48-2.93,2.34-4.05,29.21-38.33,58.43-76.65,87.73-114.9,2.58-3.37,3.54-6.46.83-10.06.3-.4.6-.8.9-1.2,1.58,1.69,3.17,3.38,4.75,5.08,3.68,3.94,7.9,7.37,11.21,11.66-.31.48-.61.96-.92,1.44Z"/>
  <path class="cls-2" d="M245.97,123.43c-.14,1.82-1.63,2.72-2.71,3.88-4.32,4.64-9.25,8.69-13.21,13.68-2.47-2.02-3.88-4.91-5.99-7.22,3.7-3.78,7.36-7.6,11.12-11.32,1.95-1.93,3.65-3.99,4.84-6.46,1.99,2.48,3.97,4.96,5.96,7.44Z"/>
  <path class="cls-2" d="M124.05,139.49c-3.31-4.3-7.53-7.72-11.21-11.66-1.58-1.69-3.17-3.38-4.75-5.08,1.76-3.25,4.28-5.88,6.85-8.47,1.83,5.9,6.88,9.23,10.79,13.47,1.43,1.55,2.89,3.06,4.33,4.59-2.09,2.31-3.54,5.15-6,7.15Z"/>
  <path class="cls-4" d="M311.29,254.39c-26.5-34.45-52.78-69.06-79.2-103.58-2.11-2.76-2.98-5.38-1.21-8.54-.28-.43-.56-.86-.84-1.29-2.47-2.01-3.87-4.91-5.99-7.21-7.27,5.05-12.15,4.61-18.44-1.66-.79-.79-1.62-1.56-2.37-2.39-.78-.86-1.54-.96-2.63-.46-1.12.5-1.91.99-1.85,2.39.08,1.99.07,3.99-.01,5.97-.23,6.07-4.74,11-10.81,11.24-6.7.27-13.43.25-20.14.02-6.27-.21-10.81-5.12-11.01-11.41-.05-1.74-.05-3.49,0-5.23.04-1.34-.23-2.29-1.64-2.96-1.48-.7-2.33-.19-3.21.83-.41.47-.88.88-1.32,1.32-7.54,7.53-12.49,7.74-20.57.91-2.09,2.31-3.55,5.15-6.01,7.15-.3.48-.61.96-.92,1.44,3.41,3.79,3.47,5.76.17,10.09-26.93,35.32-53.86,70.65-80.86,105.93-1.76,2.29-2.67,4.52-2.59,7.46.19,6.46.1,12.94.05,19.41-.04,5.28-1.9,7.11-7.18,7.29,0,4.23-.02,8.46-.02,12.69,5.37.18,7.11,1.9,7.2,7.22.05,2.49.11,4.98,0,7.46-.1,1.98.71,2.55,2.61,2.53,12.93-.11,25.87-.13,38.8-.18,19.17.05,38.35.08,57.53.18,1.92.01,2.62-.59,2.61-2.55-.03-3.98-.06-7.98.28-11.94,1.62-18.56,15.92-32.01,34.88-32.95,16.92-.83,32.76,11.85,36.13,29.06.95,4.91.95,9.93.67,14.9-.16,2.87.82,3.54,3.58,3.51,15.94-.12,31.88-.07,47.83-.05,4.92.01,6.21,1.11,7.31,6.07,4.14-.01,8.29-.02,12.43-.02.78-4.67,2.25-6.02,6.82-6.05,7.21-.04,14.41-.04,21.61.01,1.74.02,2.78-.2,2.76-2.36-.12-14.9-.15-29.8-.21-44.7.06-2.12-.08-4.26.21-6.34.72-5.19-1.31-9.14-4.44-13.21ZM134.97,265.33c-.84,2.7-2.99,3.9-5.73,3.93-5.85.05-11.7.01-17.55.01-5.35.01-10.7,0-16.06.01-3.19,0-5.65-1.17-6.46-4.47-.73-2.98.64-5.23,3.33-6.3,1.89-.75,1.44-2.06,1.45-3.31.03-9.96-.08-19.92.06-29.87.12-9.07,7.13-16.8,15.96-17.92,9.21-1.16,17.78,4.46,20.31,13.35.72,2.54.78,5.16.78,7.77,0,8.84.02,17.68-.01,26.51-.01,1.67.03,3.04,1.8,4.08,2.31,1.35,2.89,3.73,2.12,6.21ZM207.74,215.14c-.07,6.84-4.64,11.55-11.47,11.6-12.58.1-25.16.1-37.75,0-6.8-.05-11.39-4.79-11.42-11.65-.05-13.08-.05-26.16,0-39.24.02-7.06,4.59-11.76,11.66-11.82,12.46-.1,24.92-.11,37.37,0,7.05.07,11.56,4.78,11.62,11.86.05,6.48.01,12.96.01,19.44s.05,13.21-.02,19.81ZM265.65,264.9c-.76,2.95-2.9,4.31-5.8,4.35-5.74.08-11.47.02-17.21.02-5.49.01-10.98,0-16.46.01-2.86,0-5.29-.91-6.25-3.78-.93-2.76-.15-5.22,2.53-6.71,1.73-.97,1.31-2.52,1.31-3.96.03-9.47-.2-18.96.09-28.43.46-14.94,14.75-23.71,27.29-16.85,6.31,3.45,9.62,8.95,9.7,16.15.11,9.85.04,19.71.02,29.56,0,1.52-.02,2.69,1.85,3.48,2.53,1.07,3.65,3.35,2.93,6.16Z"/>
  <path class="cls-2" d="M330.38,363.81c-.32,8.16-.09,8.17-8.16,8.17-83.68,0-167.36,0-251.04,0-1.61,0-3.23-.09-4.85-.14-12.92.05-25.84.07-38.76.18-1.85.01-2.21-.72-2.3-2.41-.55-10.42-.59-10.44,9.76-10.41,10.43.03,20.86.1,31.3.16,1.37-.06,2.73-.16,4.1-.16,85.05-.01,170.1.02,255.15-.09,3.76-.01,4.95.83,4.8,4.71Z"/>
  <path class="cls-4" d="M272.11,327.06c4.14,0,8.29-.01,12.43-.02.85,3.81,3.38,5.2,7.09,5.16,7.1-.07,14.2.04,21.29-.06,2.07-.03,2.89.57,2.8,2.73-.15,3.36-.2,6.73.01,10.08.16,2.55-.85,3.09-3.2,3.07-14.69-.09-29.39-.05-44.08-.05-17.19,0-34.37-.07-51.56.07-2.87.02-3.71-.82-3.48-3.58.23-2.85.23-5.74,0-8.58-.23-2.88.65-3.81,3.67-3.78,15.69.15,31.38,0,47.07.12,3.96.03,6.8-1.13,7.95-5.17Z"/>
  <path class="cls-2" d="M202.27,345.35c.01,1.79-.27,2.72-2.41,2.68-7.85-.16-15.7-.13-23.55-.17-7.09.04-14.17.02-21.25.17-2.01.04-2.51-.68-2.5-2.58.07-12.06-.27-24.13.13-36.17.62-18.52,19.22-30.02,35.13-22.03,9.48,4.36,14.06,12.08,14.33,22.2.32,11.96.06,23.93.12,35.9Z"/>
  <path class="cls-4" d="M141.41,345.5c.07,1.99-.71,2.52-2.61,2.51-19.17-.09-38.34-.11-57.51-.15-12.93.04-25.85.05-38.77.15-1.88.02-2.7-.49-2.63-2.5.12-3.6.12-7.21,0-10.81-.07-1.99.71-2.56,2.61-2.54,12.93.1,25.85.12,38.77.17,19.17-.05,38.34-.08,57.51-.18,1.89-.01,2.7.5,2.63,2.52-.12,3.6-.12,7.22,0,10.83Z"/>
  <path class="cls-2" d="M215.63,125.9c-.4-.25-.74-.42-1.02-.66-.47-.41-.91-.86-1.33-1.31-9.96-10.61-9.88-7.64-20.23-3.76-3.69,1.39-5.4,4.11-5.51,8.03-.09,3.08,1.38,7.18-.56,8.96-2.08,1.91-6.16.5-9.37.55-3.08.05-7.12.99-9-.56-2-1.65-.49-5.83-.61-8.91-.14-3.89-1.79-6.65-5.48-8.07-.23-.09-.45-.2-.68-.29-9.83-3.73-9.85-6.38-19.52,4.06-1.81,1.96-2.85,1.94-4.61,0-3.18-3.5-6.6-6.79-10.02-10.06-1.28-1.22-1.46-2.03-.03-3.25,1.61-1.37,3.03-2.96,4.51-4.47.7-.71,1.47-1.39,2-2.21,3.59-5.71-.92-10.18-2.52-15.03-1.02-3.11-3.77-4.49-7.08-4.52-2.49-.02-4.99-.11-7.48,0-1.92.09-2.66-.55-2.62-2.54.11-4.98.09-9.97,0-14.95-.03-1.81.68-2.42,2.43-2.33,2.24.11,4.49.05,6.73.02.99-.01,2.02-.01,2.98-.23,6.67-1.55,11.07-15.56,6.45-20.61-1.76-1.93-3.61-3.8-5.55-5.55-1.26-1.14-1.1-1.87.05-2.98,3.67-3.55,7.3-7.16,10.83-10.85,1.26-1.32,2.18-1.39,3.26.05.15.2.35.35.52.54,10.4,11.17,10.31,7.46,20.19,3.91,3.88-1.39,5.6-4.28,5.64-8.33.03-2.96-.97-6.95.55-8.62,1.8-1.99,5.86-.53,8.93-.61,3.22-.08,7.39-1.1,9.4.49,2.13,1.69.52,6.05.68,9.24.19,3.74,1.84,6.38,5.4,7.72.35.13.68.31,1.03.44,9.33,3.6,9.43,6.4,19.18-4.09,1.69-1.82,2.77-2.2,4.63-.13,3.07,3.43,6.42,6.62,9.77,9.79,1.49,1.41,1.74,2.45.06,3.86-1.52,1.28-2.87,2.77-4.25,4.2-.77.8-1.59,1.61-2.17,2.55-3.74,6.06,3.07,18.96,10.13,19.2,2.49.08,4.99.09,7.48,0,1.63-.05,2.2.61,2.18,2.19-.05,5.11-.07,10.22.01,15.33.03,1.87-.78,2.37-2.48,2.29-2.24-.1-4.49-.05-6.73,0-.99.02-2.02.03-2.97.26-6.64,1.61-10.9,15.6-6.31,20.65.25.28.54.52.79.8,1.84,2.13,5.59,3.81,5.3,6.22-.28,2.28-3.53,4.21-5.52,6.26-1.91,1.97-3.87,3.89-5.81,5.82-.52.52-1.09,1-1.64,1.5ZM148.04,83.23c-4.4,3.04-4.88,5.28-2.13,9.99,7.62,13.06,22.24,19.98,37.42,17.72,17.7-2.63,30.84-17.55,31.27-35.52.44-17.91-12.22-33.88-29.44-37.14-18.04-3.41-35.49,6.14-41.83,22.88-1.82,4.81-1.23,6.61,3.04,9.33.14,4.3-.68,8.72,1.66,12.74Z"/>
  <path class="cls-3" d="M207.76,195.33c0,6.6.05,13.21-.02,19.81-.07,6.85-4.65,11.55-11.47,11.6-12.58.09-25.17.1-37.75,0-6.8-.05-11.39-4.8-11.42-11.65-.06-13.08-.05-26.16,0-39.24.03-7.05,4.59-11.76,11.66-11.82,12.46-.1,24.92-.11,37.38,0,7.05.06,11.56,4.78,11.62,11.86.05,6.48.01,12.96.01,19.43ZM172.18,182.72q0-7.5-6.47-7.5-7.43,0-7.43,7.61,0,7,6.97,7t6.93-7.11ZM196.58,182.49c0-.75,0-1.49,0-2.24q0-5.04-5.12-5.04-8.17,0-8.17,8.42,0,6.22,5.95,6.22,7.34,0,7.34-7.36ZM196.57,208.35v-1.49q0-5.86-5.8-5.86-7.46,0-7.46,8,0,6.55,6.25,6.55,7.01,0,7.01-7.2ZM158.28,208.12q0,7.43,6.06,7.43,7.81,0,7.81-7.97,0-6.55-6.69-6.55-7.18,0-7.18,7.09Z"/>
  <path class="cls-3" d="M111.69,269.28c-5.35,0-10.7,0-16.06,0-3.19,0-5.65-1.17-6.46-4.46-.73-2.98.64-5.23,3.33-6.3,1.89-.75,1.44-2.06,1.44-3.31.03-9.96-.07-19.92.06-29.87.12-9.07,7.14-16.8,15.96-17.91,9.21-1.16,17.78,4.46,20.31,13.35.72,2.54.78,5.16.78,7.77,0,8.84.02,17.67-.01,26.51,0,1.66.04,3.04,1.8,4.08,2.31,1.35,2.89,3.74,2.12,6.21-.84,2.7-2.99,3.9-5.73,3.93-5.85.05-11.7.02-17.55.02ZM105.16,240.58c0,4.98.06,9.96-.03,14.94-.03,1.84.37,2.72,2.45,2.62,3.23-.16,6.47-.13,9.71,0,1.92.07,2.63-.53,2.61-2.52-.08-9.83.06-19.67-.1-29.5-.08-4.69-3.26-7.67-7.47-7.59-4.25.08-7.09,3.13-7.15,7.87-.07,4.73-.01,9.46-.02,14.19Z"/>
  <path class="cls-3" d="M242.64,269.28c-5.49,0-10.97,0-16.46,0-2.85,0-5.29-.91-6.25-3.78-.93-2.77-.15-5.22,2.53-6.72,1.73-.96,1.31-2.52,1.31-3.95.03-9.48-.21-18.96.08-28.43.46-14.94,14.75-23.71,27.3-16.85,6.3,3.45,9.61,8.95,9.69,16.15.11,9.85.04,19.7.02,29.55,0,1.52-.02,2.69,1.85,3.48,2.53,1.07,3.65,3.35,2.93,6.16-.76,2.94-2.9,4.31-5.8,4.35-5.74.08-11.47.02-17.21.03ZM249.69,240.89c0-4.85.06-9.71-.02-14.56-.07-4.72-2.95-7.76-7.21-7.81-4.2-.05-7.34,2.96-7.41,7.66-.15,9.83,0,19.67-.09,29.5-.02,2.05.82,2.53,2.67,2.46,3.11-.12,6.23-.15,9.33,0,2.08.1,2.85-.5,2.78-2.69-.15-4.85-.05-9.71-.05-14.56Z"/>
  <path class="cls-1" d="M148.04,83.23c4.04-.7,6.01,1.7,7.91,4.8,6.08,9.94,17.72,14.41,28.76,11.28,10.91-3.09,18.48-12.88,18.73-24.22.25-11.57-6.91-21.6-17.96-25.13-12.96-4.14-26.53,2.31-31.65,15.26-1.41,3.58-3.44,5.66-7.45,5.27-4.28-2.72-4.86-4.52-3.04-9.33,6.34-16.75,23.8-26.29,41.83-22.88,17.22,3.26,29.88,19.22,29.44,37.14-.44,17.97-13.57,32.88-31.27,35.52-15.19,2.26-29.81-4.66-37.42-17.72-2.75-4.71-2.27-6.94,2.13-9.99Z"/>
  <path class="cls-2" d="M172.18,182.72q0,7.11-6.93,7.11t-6.97-7q0-7.61,7.43-7.61,6.47,0,6.47,7.5Z"/>
  <path class="cls-2" d="M196.58,182.49q0,7.36-7.34,7.36-5.95,0-5.95-6.22,0-8.42,8.17-8.42,5.12,0,5.12,5.04c0,.75,0,1.49,0,2.24Z"/>
  <path class="cls-2" d="M196.57,208.35q0,7.2-7.01,7.2-6.25,0-6.25-6.55,0-8,7.46-8,5.8,0,5.8,5.86v1.49Z"/>
  <path class="cls-2" d="M158.28,208.12q0-7.09,7.18-7.09,6.69,0,6.69,6.55,0,7.97-7.81,7.97-6.06,0-6.06-7.43Z"/>
  <path class="cls-2" d="M105.17,240.58c0-4.73-.05-9.46.02-14.19.07-4.73,2.9-7.79,7.15-7.87,4.21-.08,7.39,2.9,7.47,7.59.16,9.83.02,19.67.1,29.5.02,1.98-.69,2.59-2.61,2.52-3.23-.13-6.48-.15-9.71,0-2.08.1-2.49-.79-2.45-2.62.09-4.98.03-9.96.03-14.94Z"/>
  <path class="cls-2" d="M249.69,240.89c0,4.85-.1,9.71.05,14.56.07,2.18-.7,2.79-2.78,2.69-3.1-.15-6.22-.12-9.33,0-1.85.07-2.69-.41-2.67-2.46.08-9.83-.06-19.67.09-29.5.07-4.7,3.21-7.7,7.41-7.66,4.26.05,7.14,3.09,7.21,7.81.08,4.85.02,9.71.02,14.56Z"/>
</svg>