<?xml version="1.0" encoding="UTF-8"?>
<svg id="Capa_1" data-name="Capa 1" xmlns="http://www.w3.org/2000/svg" viewBox="0 0 364.24 364.17">
  <defs>
    <style>
      .cls-1 {
        fill: #FFD057;
        stroke-width: 0px;
      }
    </style>
  </defs>
  <path class="cls-1" d="M71.2,364.17c.02-22.75-.02-45.51.12-68.26.02-2.68-.93-2.97-3.23-2.96-21.57.08-43.14,0-64.71.11-2.5.01-3.39-.38-3.38-3.19.12-34.72.06-69.45.08-104.18.01-13.27,4.88-24.45,14.8-33.3,1.64-1.46,1.33-2.11-.02-3.49C1.58,135.36-3.16,119.3,2.13,101.01c5.19-17.94,17.42-29.14,35.5-33.71,32.89-8.3,64.81,22.13,58.28,55.44-2.42,12.36-8.49,22.45-18.57,30.06-1.45,1.1-2.5,1.71-.72,3.7,7.51,8.4,10.79,18.46,10.81,29.64.02,10.78.07,21.57-.05,32.35-.02,2.14.44,2.83,2.7,2.77,6.4-.17,12.8-.09,19.2-.05,19.86.1,33.71,13.92,33.73,33.8.05,36.38.01,72.77.01,109.15h-71.84ZM21.41,226.46c0,13.98.07,27.97-.07,41.95-.03,2.62.57,3.33,3.27,3.31,21.45-.13,42.9-.01,64.35-.14,2.86-.02,3.73.53,3.7,3.58-.16,21.33-.03,42.66-.15,63.99-.02,2.8.42,3.87,3.56,3.76,7.46-.27,14.93-.21,22.39-.02,2.62.07,3.31-.56,3.3-3.25-.11-28.2-.06-56.41-.08-84.61,0-8.21-4.27-12.47-12.47-12.48-13.15-.02-26.31-.15-39.46.09-3.32.06-3.75-1-3.73-3.93.14-17.42.12-34.84.05-52.26-.05-12.65-8.38-22.56-19.61-23.56-14.04-1.25-24.9,8.49-25.03,22.68-.13,13.63-.03,27.26-.03,40.88ZM48.36,87.44c-14.73,0-26.89,12.12-26.93,26.83-.04,14.62,12.02,26.78,26.79,27.01,14.58.22,27.24-12.39,27.14-27.04-.11-14.72-12.28-26.8-27-26.79Z"/>
  <path class="cls-1" d="M221.28,364.17c0-36.38-.05-72.75.02-109.13.03-13.71,5.85-24.11,18.23-30.5,4.73-2.44,9.85-3.26,15.1-3.32,6.52-.07,13.04-.11,19.55.04,2.18.05,2.78-.49,2.75-2.72-.13-10.31.03-20.62-.08-30.92-.12-11.81,3.04-22.45,11.02-31.35,1.47-1.64.73-2.23-.56-3.21-11.81-8.92-18.2-20.79-19.51-35.53-2.09-23.45,15.85-46.8,39.06-50.64,27.49-4.54,51.44,12.15,56.66,39.51.09.48.14.92.72,1.01v14.22c-.19.11-.52.2-.55.34-2.01,10.74-6.74,20.04-14.81,27.5-1.72,1.59-.21,2.13.67,2.91,5.39,4.79,9.36,10.57,11.88,17.31,1.08,2.89,1.89,5.89,2.82,8.84v114.51c-22.83-.02-45.67,0-68.5-.1-2.19,0-2.74.53-2.73,2.73.1,22.83.09,45.67.1,68.5h-71.84ZM242.61,296.86c0,14.22.06,28.44-.05,42.66-.02,2.45.27,3.49,3.16,3.39,7.58-.26,15.17-.21,22.75-.02,2.61.06,3.34-.54,3.32-3.26-.13-21.45-.01-42.9-.14-64.35-.02-2.84.5-3.74,3.57-3.72,21.33.16,42.66,0,63.99.18,3.3.03,3.76-.98,3.75-3.93-.12-24.17-.06-48.35-.07-72.53,0-3.79.14-7.59-.09-11.37-.89-14.66-14.89-24.5-28.66-20.25-9.96,3.07-15.9,11.59-15.93,23.02-.04,17.66-.05,35.32.04,52.97.01,2.28-.52,2.96-2.88,2.94-13.39-.12-26.78-.07-40.17-.05-8.4.01-12.58,4.24-12.59,12.72-.01,13.87,0,27.73,0,41.6ZM315.83,87.44c-14.73.07-26.94,12.29-26.89,26.91.05,14.6,12.26,26.81,26.92,26.92,14.69.11,27.18-12.42,27.03-27.13-.15-14.75-12.34-26.77-27.06-26.71Z"/>
  <path class="cls-1" d="M182.16,160.34c-6.81-11.75-13.88-22.69-19.6-34.3-3.69-7.49-8.15-9.94-16.5-9.63-19.4.72-32.16-12.58-32.18-32.08-.02-17.66-.06-35.32.01-52.98.06-14.98,8.48-26.2,22.6-30.25C139.46.24,142.54,0,145.63,0c24.3,0,48.6-.03,72.89,0,19,.03,31.87,12.89,31.91,31.88.04,17.54.03,35.08,0,52.62-.02,19.25-12.82,32.07-32.02,32.14-3.67.01-8.04-1.1-10.81.51-2.76,1.6-3.91,5.97-5.75,9.13-6.46,11.15-12.9,22.3-19.69,34.04ZM182.16,117.66c3.96-6.83,7.69-13,11.13-19.33,1.22-2.25,2.53-3.17,5.17-3.09,6.87.22,13.74.1,20.62.07,6.32-.03,10-3.6,10.02-9.8.03-18.13.03-36.26,0-54.39-.01-6.06-3.66-9.75-9.69-9.76-24.77-.03-49.53-.03-74.3,0-6.23,0-9.86,3.67-9.87,9.94-.03,18.01-.03,36.02,0,54.03,0,6.29,3.63,9.94,9.84,9.97,6.87.04,13.75.18,20.62-.07,2.8-.1,4.16.88,5.45,3.25,3.41,6.31,7.13,12.45,11.03,19.18Z"/>
</svg>