<?xml version="1.0" encoding="UTF-8"?>
<svg id="Capa_1" data-name="Capa 1" xmlns="http://www.w3.org/2000/svg" viewBox="0 0 371.2 371.24">
  <defs>
    <style>
      .cls-1 {
        fill: #FFD057;
      }

      .cls-1, .cls-2, .cls-3 {
        stroke-width: 0px;
      }

      .cls-2 {
        fill: #14243A;
      }

      .cls-3 {
        fill: transparent;
      }
    </style>
  </defs>
  <path class="cls-2" d="M299.36,328.42c0,12.95-.13,25.79.09,38.61.06,3.39-.82,4.21-4.21,4.21-89.04-.1-178.08-.1-267.12,0-3.38,0-4.21-.81-4.2-4.2.12-49.26.05-98.52.16-147.78,0-3.11-.71-3.97-3.83-3.82-5.85.28-11.72-.02-17.58.13-2.14.05-2.69-.59-2.66-2.69.11-8.85.08-17.71.02-26.56-.01-1.56.38-2.91,1.06-4.27,11.96-23.9,23.93-47.8,35.82-71.74.97-1.95,2.06-2.64,4.24-2.61,9.35.13,18.71,0,28.06.1,2.03.02,2.79-.4,2.74-2.61-.15-6.61-.1-13.22-.02-19.83.02-1.83-.15-2.62-2.39-2.15-9.05,1.9-17.54-2.87-20.57-11.36-2.96-8.3.43-17.46,8.42-21.73,11.84-6.32,23.82-12.39,35.75-18.56,17.56-9.07,35.17-18.05,52.68-27.23,10.65-5.58,21.11-5.67,31.73,0,8.55,4.57,17.24,8.89,25.81,13.42,1.8.95,2.48.81,3.51-1.16,6.81-12.93,20.14-19.03,33.84-15.73,13.39,3.23,22.68,15.26,22.72,29.67.06,20.7-.04,41.4.09,62.1.02,2.7-.75,3.29-3.3,3.2-5.98-.2-11.97,0-17.95-.1-1.93-.03-2.79.22-2.82,2.53-.13,9.48-.23,9.48,9.31,9.48,11.22,0,22.45.06,33.67-.06,2.07-.02,3.08.63,3.95,2.46,2.83,5.95,6,11.74,8.72,17.75,1.3,2.86,2.83,3.94,6.11,3.9,16.83-.21,33.67-.11,50.5-.09,12.15.01,19.48,7.39,19.5,19.61.02,12.97.02,25.94,0,38.91-.02,11.86-7.5,19.27-19.44,19.3-8.36.02-16.71.14-25.06-.07-2.79-.07-3.46.64-3.45,3.44.11,32.55.1,65.1.06,97.65-.01,11.02-8.43,19.28-18.9,18.66-1.6-.09-3.17-.49-5.03-.79ZM132.61,227.46c-.83-3.04-1.17-5.88-.85-8.71.29-2.65-.62-3.26-3.23-3.25-29.68.1-59.35.12-89.03-.02-3.07-.01-3.55.95-3.55,3.71.08,45.39.09,90.77-.01,136.16,0,3.01.55,3.9,3.76,3.89,42.27-.13,84.54-.08,126.81-.08,39.15,0,78.3,0,117.46,0,1.79,0,3.51.59,3.48-2.61-.18-18.83-.06-37.65-.11-56.48,0-4.09-2.49-6.71-6-6.66-3.5.04-5.83,2.66-5.87,6.79-.06,6.23.01,12.47-.02,18.7-.03,4.48.36,9.04-.32,13.44-1.45,9.49-10.2,15.81-19.77,14.85-9.21-.92-15.86-8.43-15.88-18.11-.04-19.58,0-39.15-.03-58.73,0-4.16-2.28-6.75-5.79-6.87-3.61-.13-5.87,2.26-6.1,6.47-.48,8.75-5.77,15.18-14.05,17.08-7.68,1.76-15.77-2-19.74-9.42-.89-1.66-1.78-2.27-3.65-2.23-6.61.13-13.22-.03-19.82.1-2.07.04-2.74-.49-2.71-2.65.13-8.1.05-16.21.05-24.31,0-9.13,0-9.01-8.97-9.08-2.57-.02-3.01.82-2.99,3.14.12,9.97,0,19.95.09,29.92.02,2.11-.24,3.02-2.75,3-14.21-.14-28.43-.11-42.64-.02-2.14.01-2.67-.6-2.66-2.69.09-14.21.12-28.43-.02-42.64-.03-2.56.97-2.74,3.03-2.71,7.22.1,14.44.04,21.88.04ZM239.25,143.28c.12-.77-.37-.91-.82-1.12-7.68-3.68-11.12-9.83-10.98-18.29.14-8.47-.04-16.95.08-25.42.03-2.13-.58-2.71-2.69-2.66-6.1.14-12.22-.08-18.32.11-2.47.08-3.08-.66-3.05-3.08.13-10.59,0-21.19.11-31.78.02-2.05-.63-3.09-2.42-4-12.52-6.36-24.99-12.8-37.44-19.29-1.49-.78-2.6-.75-4.08.03-24.49,12.68-49.01,25.32-73.56,37.89-1.66.85-2.25,1.81-2.24,3.69.07,20.56.08,41.13,0,61.7,0,2.13.6,2.67,2.69,2.66,14.08-.09,28.17-.12,42.25.02,2.58.03,3-.83,2.98-3.14-.1-12.59-.03-25.18-.07-37.76,0-3.14.3-6.22,1.18-9.23,4.11-14.15,17.95-23.43,32.23-21.62,15.07,1.91,26.35,14.34,26.51,29.49.13,13.09.07,26.17,0,39.26-.01,2.08.2,3.03,2.73,3,14.46-.14,28.92-.07,43.37-.09.53,0,1.24.34,1.55-.35ZM227.32,227.52c25.56,0,51.12.01,76.68,0,5.16,0,7.32-2.14,7.34-7.22.04-11.1.03-22.19,0-33.29-.01-5.33-2.12-7.42-7.51-7.42-50.87-.01-101.75-.01-152.62,0-5.4,0-7.51,2.08-7.53,7.4-.03,10.85-.02,21.7,0,32.54,0,6.08,1.93,7.99,8.07,7.99,25.19,0,50.37,0,75.56,0ZM301.48,167.57c-3.65-7.33-7.2-14.28-10.53-21.32-.96-2.03-2.18-2.57-4.3-2.54-8.72.11-17.45.03-26.17.06-2.84,0-6.53-.9-8.3.51-1.89,1.51-.67,5.37-.56,8.17.1,2.54-.52,3.35-3.23,3.34-57.83-.08-115.67-.08-173.5-.01-2.41,0-3.14-.58-3.11-3.06.15-9.97-.03-19.94.12-29.91.04-2.5-.71-3.11-3.11-3.05-6.6.16-13.22.2-19.81-.02-2.53-.08-3.68.8-4.77,3-8.81,17.85-17.76,35.63-26.66,53.43-.49.98-.9,1.99-1.52,3.37,8.8,0,17.23,0,25.66,0,29.29,0,58.58,0,87.87-.02,1.48,0,2.99.53,4.04-1.58,3.62-7.33,9.75-10.42,17.89-10.41,48.49.08,96.97.04,145.46.04,1.35,0,2.7,0,4.56,0ZM311.33,238.57c-4.79,1.27-9.39.88-13.96.88-30.16.02-60.32.04-90.48-.04-2.46,0-3.44.38-3.38,3.16.2,8.47.05,16.95.08,25.42.01,4.69,2.26,7.38,6.05,7.37,3.69-.01,5.65-2.33,5.93-7.03.45-7.56,5.39-13.97,12.42-16.11,11.78-3.59,23.39,4.91,23.45,17.37.1,19.44.05,38.88,0,58.33,0,2.63.31,5.01,2.79,6.48,4.2,2.49,9.14-.62,9.18-5.9.08-9.6-.03-19.19.04-28.79.07-10.29,7.83-18.25,17.75-18.34,10.1-.09,18.02,7.89,18.15,18.33.05,3.99-.11,7.98.08,11.96.16,3.28,2.79,5.59,5.89,5.6,3.1.01,5.61-2.29,5.95-5.56.12-1.11.05-2.24.05-3.36,0-20.19,0-40.38,0-60.57v-9.19ZM215.63,55.01c0,8.6.06,17.2-.05,25.8-.03,2.15.32,3.03,2.79,2.99,10.09-.16,20.19-.16,30.29,0,2.52.04,2.76-.93,2.76-3.02-.07-16.7,0-33.4-.06-50.11-.04-10.54-7.86-18.6-17.88-18.59-10.02,0-17.78,8.07-17.84,18.62-.05,8.1,0,16.2-.01,24.31ZM302.75,143.7c6.7,10.96,10.23,22.66,17.64,32.32,2.08,2.72,2.89,6.02,2.9,9.47.01,3.24.08,6.48-.02,9.71-.05,1.63.19,2.43,2.16,2.41,9.21-.11,18.42.02,27.63-.09,3.72-.04,6.09-2.4,6.11-6.12.08-13.82.08-27.64,0-41.45-.02-3.77-2.33-6.19-6.01-6.21-16.53-.08-33.06-.04-50.41-.04ZM179.55,121.24c0-6.61.13-13.22-.03-19.83-.25-9.78-8.21-17.5-17.83-17.51-9.62,0-17.71,7.71-17.85,17.47-.18,13.22,0,26.44-.11,39.65-.02,2.22.75,2.64,2.77,2.62,10.1-.09,20.2-.13,30.3.02,2.46.04,2.84-.83,2.8-2.99-.13-6.48-.05-12.97-.06-19.45ZM203.52,44.68c0-4.04-.16-7.41.06-10.75.14-2.14-.8-3.07-2.54-3.95-9.54-4.83-19.11-9.61-28.5-14.72-7.33-3.99-14.25-3.92-21.64-.05-25.44,13.33-51.01,26.42-76.53,39.61-3.76,1.94-7.56,3.8-11.23,5.89-3.03,1.73-3.92,4.83-2.51,7.66,1.47,2.96,4.64,4.07,7.92,2.72.92-.38,1.79-.87,2.67-1.32,28.52-14.7,57.08-29.3,85.5-44.19,3.77-1.98,6.49-1.88,10.15.1,11.89,6.45,24,12.47,36.67,18.99ZM71.93,203.45h51.57c8.17,0,8.01,0,8.23-7.98.09-3.09-.69-3.88-3.83-3.87-35.87.12-71.75.08-107.62.08-8.2,0-8.07,0-8.22,8.36-.05,2.77.62,3.51,3.45,3.49,18.81-.14,37.62-.07,56.43-.07ZM143.58,252.28c0-3.89-.09-7.13.03-10.37.06-1.72-.35-2.39-2.23-2.36-6.35.11-12.71.13-19.07,0-2.03-.04-2.48.64-2.45,2.53.11,6.23.1,12.46,0,18.69-.03,1.86.35,2.67,2.42,2.55,3.23-.18,6.48-.02,9.72-.05,3.72-.04,8.72,1.31,10.82-.56,2.43-2.16.39-7.26.74-10.42ZM283.54,131.63c-1.88-3.77-3.5-6.85-4.97-10-.6-1.28-1.32-1.86-2.81-1.86-11.34.06-22.67.03-34.01.04-.72,0-1.55-.24-2.07.49-2.58,3.61,1.08,11.19,5.7,11.26,12.54.18,25.08.06,38.16.06ZM179.77,251.07v3.36c0,9.36,0,9.29,9.51,8.89,1.86-.08,2.27-.66,2.23-2.37-.11-4.11-.03-8.22-.03-12.34,0-9.38,0-9.3-9.32-9.08-2.05.05-2.5.71-2.42,2.56.13,2.99.04,5.98.03,8.97Z"/>
  <path class="cls-3" d="M132.61,227.46c-7.45,0-14.67.06-21.88-.04-2.06-.03-3.05.16-3.03,2.71.15,14.21.11,28.43.02,42.64-.01,2.09.52,2.71,2.66,2.69,14.21-.09,28.43-.12,42.64.02,2.51.02,2.77-.89,2.75-3-.1-9.97.03-19.95-.09-29.92-.03-2.32.42-3.16,2.99-3.14,8.97.07,8.97-.05,8.97,9.08,0,8.1.08,16.21-.05,24.31-.03,2.16.63,2.69,2.71,2.65,6.61-.13,13.22.03,19.82-.1,1.88-.04,2.77.57,3.65,2.23,3.97,7.42,12.07,11.18,19.74,9.42,8.28-1.9,13.57-8.33,14.05-17.08.23-4.2,2.49-6.59,6.1-6.47,3.51.12,5.78,2.71,5.79,6.87.03,19.58-.01,39.15.03,58.73.02,9.68,6.67,17.19,15.88,18.11,9.57.96,18.31-5.36,19.77-14.85.67-4.39.29-8.95.32-13.44.04-6.23-.03-12.47.02-18.7.04-4.13,2.37-6.75,5.87-6.79,3.51-.04,5.99,2.57,6,6.66.04,18.83-.07,37.66.11,56.48.03,3.2-1.69,2.61-3.48,2.61-39.15,0-78.3,0-117.46,0-42.27,0-84.54-.04-126.81.08-3.21,0-3.77-.88-3.76-3.89.1-45.39.1-90.77.01-136.16,0-2.76.48-3.73,3.55-3.71,29.67.14,59.35.12,89.03.02,2.62,0,3.53.6,3.23,3.25-.31,2.83.03,5.68.85,8.71ZM71.87,275.42c7.1,0,14.21-.07,21.31.04,2.03.03,2.75-.41,2.74-2.61-.1-14.33-.09-28.66,0-42.99.01-2.02-.63-2.45-2.52-2.45-14.33.07-28.66.07-42.99,0-1.85,0-2.56.35-2.55,2.42.1,14.33.1,28.66,0,42.99-.01,2.16.65,2.67,2.71,2.64,7.1-.12,14.2-.05,21.31-.05ZM95.86,323.65c0-7.23-.07-14.45.04-21.68.03-2.03-.42-2.75-2.62-2.74-14.33.1-28.66.09-42.99,0-2.03-.01-2.45.64-2.44,2.53.07,14.33.07,28.66,0,42.99,0,1.85.36,2.56,2.42,2.55,14.33-.1,28.66-.1,42.99,0,2.17.01,2.67-.66,2.64-2.72-.12-6.98-.05-13.95-.05-20.93ZM107.76,323.28c0,7.1.07,14.21-.05,21.31-.03,2.06.47,2.73,2.64,2.72,14.33-.1,28.66-.1,42.99,0,2.06.01,2.43-.69,2.42-2.55-.07-14.33-.07-28.66,0-42.99,0-1.89-.41-2.54-2.44-2.53-14.33.09-28.66.1-42.99,0-2.2-.02-2.65.7-2.62,2.74.12,7.1.04,14.2.04,21.31ZM215.58,323.27c0-7.1-.07-14.21.05-21.31.03-2.05-.44-2.74-2.63-2.72-14.33.1-28.66.1-42.99,0-2.05-.01-2.44.67-2.43,2.54.07,14.33.07,28.66,0,42.99,0,1.87.39,2.55,2.43,2.53,14.33-.09,28.66-.1,42.99,0,2.19.02,2.66-.68,2.62-2.73-.12-7.1-.05-14.2-.05-21.31Z"/>
  <path class="cls-3" d="M239.25,143.28c-.3.69-1.02.35-1.55.35-14.46.02-28.92-.06-43.37.09-2.53.03-2.74-.92-2.73-3,.08-13.09.14-26.17,0-39.26-.16-15.15-11.43-27.58-26.51-29.49-14.28-1.81-28.12,7.47-32.23,21.62-.87,3.01-1.19,6.09-1.18,9.23.04,12.59-.04,25.18.07,37.76.02,2.31-.39,3.17-2.98,3.14-14.08-.14-28.17-.11-42.25-.02-2.09.01-2.7-.52-2.69-2.66.08-20.56.08-41.13,0-61.7,0-1.88.58-2.84,2.24-3.69,24.55-12.58,49.07-25.21,73.56-37.89,1.49-.77,2.59-.8,4.08-.03,12.45,6.49,24.92,12.93,37.44,19.29,1.79.91,2.45,1.95,2.42,4-.12,10.59.02,21.19-.11,31.78-.03,2.42.57,3.15,3.05,3.08,6.1-.19,12.21.03,18.32-.11,2.1-.05,2.72.53,2.69,2.66-.12,8.47.06,16.95-.08,25.42-.14,8.46,3.3,14.61,10.98,18.29.45.21.94.35.82,1.12Z"/>
  <path class="cls-1" d="M227.32,227.52c-25.19,0-50.37,0-75.56,0-6.14,0-8.07-1.91-8.07-7.99-.01-10.85-.02-21.7,0-32.54.01-5.32,2.12-7.4,7.53-7.4,50.87-.01,101.75-.01,152.62,0,5.39,0,7.5,2.09,7.51,7.42.03,11.1.03,22.19,0,33.29-.02,5.08-2.19,7.22-7.34,7.22-25.56.02-51.12,0-76.68,0Z"/>
  <path class="cls-1" d="M301.48,167.57c-1.86,0-3.21,0-4.56,0-48.49,0-96.97.04-145.46-.04-8.14-.01-14.27,3.08-17.89,10.41-1.04,2.11-2.56,1.58-4.04,1.58-29.29.03-58.58.02-87.87.02-8.43,0-16.86,0-25.66,0,.62-1.38,1.03-2.39,1.52-3.37,8.9-17.8,17.85-35.58,26.66-53.43,1.09-2.2,2.24-3.09,4.77-3,6.6.21,13.21.18,19.81.02,2.4-.06,3.15.55,3.11,3.05-.15,9.97.02,19.94-.12,29.91-.04,2.48.7,3.06,3.11,3.06,57.83-.07,115.67-.07,173.5.01,2.71,0,3.32-.8,3.23-3.34-.1-2.8-1.33-6.66.56-8.17,1.77-1.42,5.46-.5,8.3-.51,8.72-.03,17.45.05,26.17-.06,2.12-.03,3.34.52,4.3,2.54,3.33,7.04,6.89,13.99,10.53,21.32Z"/>
  <path class="cls-1" d="M311.33,238.57v9.19c0,20.19,0,40.38,0,60.57,0,1.12.07,2.25-.05,3.36-.35,3.27-2.86,5.57-5.95,5.56-3.1-.01-5.73-2.31-5.89-5.6-.2-3.98-.03-7.97-.08-11.96-.13-10.44-8.05-18.42-18.15-18.33-9.91.09-17.67,8.05-17.75,18.34-.07,9.6.04,19.19-.04,28.79-.04,5.28-4.98,8.39-9.18,5.9-2.48-1.47-2.8-3.85-2.79-6.48.04-19.44.1-38.88,0-58.33-.07-12.46-11.67-20.96-23.45-17.37-7.03,2.14-11.97,8.55-12.42,16.11-.28,4.7-2.24,7.02-5.93,7.03-3.79.01-6.04-2.68-6.05-7.37-.03-8.47.12-16.95-.08-25.42-.07-2.78.91-3.17,3.38-3.16,30.16.08,60.32.06,90.48.04,4.57,0,9.17.39,13.96-.88Z"/>
  <path class="cls-1" d="M215.63,55.01c0-8.1-.04-16.2.01-24.31.06-10.55,7.82-18.61,17.84-18.62,10.02,0,17.84,8.05,17.88,18.59.06,16.7-.02,33.4.06,50.11,0,2.1-.24,3.06-2.76,3.02-10.09-.16-20.19-.16-30.29,0-2.47.04-2.82-.85-2.79-2.99.11-8.6.05-17.2.05-25.8Z"/>
  <path class="cls-1" d="M179.55,121.24c0,6.48-.08,12.97.05,19.45.04,2.16-.34,3.03-2.8,2.99-10.1-.16-20.2-.12-30.3-.02-2.02.02-2.79-.41-2.77-2.62.11-13.22-.08-26.44.11-39.65.13-9.76,8.22-17.48,17.85-17.47,9.62,0,17.58,7.73,17.83,17.51.17,6.6.03,13.22.04,19.83Z"/>
  <path class="cls-1" d="M203.52,44.68c-12.66-6.52-24.78-12.55-36.67-18.99-3.66-1.98-6.37-2.08-10.15-.1-28.42,14.89-56.98,29.5-85.5,44.19-.88.46-1.76.95-2.67,1.32-3.28,1.35-6.45.24-7.92-2.72-1.41-2.83-.51-5.94,2.51-7.66,3.67-2.09,7.48-3.95,11.23-5.89,25.52-13.19,51.08-26.28,76.53-39.61,7.39-3.87,14.32-3.94,21.64.05,9.39,5.11,18.96,9.89,28.5,14.72,1.74.88,2.68,1.81,2.54,3.95-.21,3.34-.06,6.71-.06,10.75Z"/>
  <path class="cls-1" d="M71.93,203.45c-18.81,0-37.62-.07-56.43.07-2.83.02-3.5-.72-3.45-3.49.15-8.35.02-8.36,8.22-8.36,35.87,0,71.75.05,107.62-.08,3.14-.01,3.92.78,3.83,3.87-.22,7.98-.06,7.98-8.23,7.98h-51.57Z"/>
  <path class="cls-3" d="M143.58,252.28c-.35,3.16,1.69,8.26-.74,10.42-2.11,1.88-7.1.53-10.82.56-3.24.03-6.49-.13-9.72.05-2.08.12-2.45-.69-2.42-2.55.1-6.23.1-12.46,0-18.69-.03-1.89.42-2.57,2.45-2.53,6.35.13,12.71.12,19.07,0,1.88-.03,2.3.64,2.23,2.36-.12,3.24-.03,6.48-.03,10.37Z"/>
  <path class="cls-1" d="M283.54,131.63c-13.07,0-25.62.12-38.16-.06-4.62-.07-8.28-7.65-5.7-11.26.52-.73,1.35-.49,2.07-.49,11.34-.01,22.67.02,34.01-.04,1.49,0,2.21.57,2.81,1.86,1.47,3.15,3.09,6.23,4.97,10Z"/>
  <path class="cls-3" d="M179.77,251.07c0-2.99.1-5.99-.03-8.97-.08-1.86.36-2.52,2.42-2.56,9.32-.22,9.32-.3,9.32,9.08,0,4.11-.07,8.23.03,12.34.05,1.72-.36,2.29-2.23,2.37-9.51.4-9.51.47-9.51-8.89,0-1.12,0-2.24,0-3.36Z"/>
  <path class="cls-2" d="M71.87,275.42c-7.1,0-14.21-.07-21.31.05-2.06.04-2.73-.47-2.71-2.64.1-14.33.1-28.66,0-42.99-.01-2.07.7-2.42,2.55-2.42,14.33.06,28.66.07,42.99,0,1.89,0,2.53.42,2.52,2.45-.09,14.33-.1,28.66,0,42.99.02,2.2-.71,2.64-2.74,2.61-7.1-.11-14.2-.04-21.31-.04ZM83.72,251.49c0-3.12-.08-6.23.03-9.35.06-1.77-.21-2.66-2.37-2.6-6.35.16-12.71.12-19.07.02-1.78-.03-2.34.47-2.31,2.28.11,6.35.09,12.71,0,19.07-.02,1.65.23,2.44,2.18,2.4,6.48-.12,12.96-.1,19.44-.01,1.62.02,2.18-.43,2.11-2.09-.12-3.24-.04-6.48-.04-9.72Z"/>
  <path class="cls-2" d="M95.86,323.65c0,6.98-.07,13.96.05,20.93.04,2.06-.47,2.73-2.64,2.72-14.33-.1-28.66-.1-42.99,0-2.06.01-2.43-.69-2.42-2.55.07-14.33.07-28.66,0-42.99,0-1.89.41-2.54,2.44-2.53,14.33.09,28.66.1,42.99,0,2.2-.02,2.65.7,2.62,2.74-.11,7.23-.04,14.45-.04,21.68ZM83.72,324.11c0-3.89-.09-7.13.03-10.37.06-1.72-.35-2.39-2.23-2.36-6.35.11-12.71.13-19.07,0-2.03-.04-2.48.64-2.45,2.53.11,6.23.1,12.46,0,18.69-.03,1.86.35,2.67,2.42,2.55,3.23-.18,6.48-.02,9.72-.05,3.72-.04,8.72,1.31,10.82-.56,2.43-2.16.39-7.26.74-10.42Z"/>
  <path class="cls-2" d="M107.76,323.28c0-7.1.07-14.21-.04-21.31-.03-2.03.42-2.75,2.62-2.74,14.33.1,28.66.09,42.99,0,2.03-.01,2.45.64,2.44,2.53-.07,14.33-.07,28.66,0,42.99,0,1.85-.36,2.56-2.42,2.55-14.33-.1-28.66-.1-42.99,0-2.17.01-2.67-.66-2.64-2.72.12-7.1.05-14.2.05-21.31ZM119.91,322.9c0,3.37.07,6.73-.03,10.09-.05,1.57.35,2.18,2.06,2.15,6.48-.09,12.96-.11,19.44,0,1.87.03,2.27-.62,2.24-2.35-.09-6.36-.09-12.71,0-19.07.03-1.74-.39-2.37-2.25-2.34-6.35.11-12.71.13-19.07,0-2.05-.04-2.51.67-2.43,2.54.14,2.99.04,5.98.04,8.97Z"/>
  <path class="cls-2" d="M215.58,323.27c0,7.1-.07,14.21.05,21.31.03,2.04-.44,2.74-2.62,2.73-14.33-.1-28.66-.1-42.99,0-2.04.01-2.44-.66-2.43-2.53.07-14.33.07-28.66,0-42.99,0-1.87.38-2.55,2.43-2.54,14.33.09,28.66.1,42.99,0,2.18-.02,2.66.68,2.63,2.72-.12,7.1-.05,14.2-.05,21.31ZM191.63,335.11c3.12,0,6.24-.11,9.35.04,1.93.09,2.55-.46,2.51-2.46-.13-6.23-.09-12.46-.02-18.69.02-1.75-.18-2.67-2.36-2.61-6.35.16-12.71.12-19.07.02-1.77-.03-2.35.45-2.32,2.27.11,6.35.14,12.71-.01,19.07-.05,2.1.74,2.47,2.57,2.4,3.11-.12,6.23-.03,9.35-.03Z"/>
  <path class="cls-3" d="M83.72,251.49c0,3.24-.09,6.48.04,9.72.06,1.66-.49,2.11-2.11,2.09-6.48-.08-12.96-.11-19.44.01-1.95.04-2.2-.75-2.18-2.4.08-6.36.1-12.71,0-19.07-.03-1.81.52-2.31,2.31-2.28,6.36.1,12.72.14,19.07-.02,2.16-.05,2.43.83,2.37,2.6-.11,3.11-.03,6.23-.03,9.35Z"/>
  <path class="cls-3" d="M83.72,324.11c-.35,3.16,1.69,8.26-.74,10.42-2.11,1.88-7.1.53-10.82.56-3.24.03-6.49-.13-9.72.05-2.08.12-2.45-.69-2.42-2.55.1-6.23.1-12.46,0-18.69-.03-1.89.42-2.57,2.45-2.53,6.35.13,12.71.12,19.07,0,1.88-.03,2.3.64,2.23,2.36-.12,3.24-.03,6.48-.03,10.37Z"/>
  <path class="cls-3" d="M119.91,322.9c0-2.99.1-5.99-.04-8.97-.08-1.87.38-2.59,2.43-2.54,6.35.14,12.71.12,19.07,0,1.86-.03,2.27.61,2.25,2.34-.09,6.36-.09,12.71,0,19.07.02,1.73-.37,2.38-2.24,2.35-6.48-.11-12.96-.1-19.44,0-1.7.02-2.1-.58-2.06-2.15.1-3.36.03-6.73.03-10.09Z"/>
  <path class="cls-3" d="M191.63,335.11c-3.12,0-6.24-.09-9.35.03-1.83.07-2.62-.3-2.57-2.4.15-6.35.12-12.71.01-19.07-.03-1.83.55-2.3,2.32-2.27,6.36.1,12.72.14,19.07-.02,2.18-.06,2.38.86,2.36,2.61-.07,6.23-.11,12.47.02,18.69.04,2-.58,2.56-2.51,2.46-3.11-.15-6.23-.04-9.35-.04Z"/>
</svg>