<?xml version="1.0" encoding="UTF-8"?>
<svg id="Capa_1" data-name="Capa 1" xmlns="http://www.w3.org/2000/svg" viewBox="0 0 383.19 324.85">
  <defs>
    <style>
      .cls-1 {
        fill: transparent;
      }

      .cls-1, .cls-2, .cls-3, .cls-4 {
        stroke-width: 0px;
      }

      .cls-2 {
        fill: #FFD057;
      }

      .cls-3 {
        fill: #14243A;
      }
    </style>
  </defs>
  <path class="cls-3" d="M277.75,20.89c1.54-4.77,2.78-5.7,7.78-5.72,4.24-.02,8.48.04,12.71-.02,4.72-.06,8.05,1.93,10.11,6.24,2.78,5.83,5.81,11.54,8.55,17.39.87,1.86,1.89,2.47,3.94,2.44,7.73-.14,15.46,0,23.18-.08,4.74-.05,7.95,1.96,10.07,6.26,9.1,18.51,18.35,36.95,27.46,55.45,3.92,7.96-.31,14.62-9.19,14.66-3.37.02-6.74.12-10.1-.04-1.98-.09-2.53.53-2.5,2.49.11,7.6-.02,15.21.07,22.81.06,4.63-1.44,8.47-4.79,11.7-4.66,4.5-9.12,9.21-13.8,13.7-1.66,1.59-2.4,3.22-2.34,5.55.15,6.23-.08,12.47.09,18.69.13,4.78-1.03,9.07-4.85,11.98-5.2,3.97-6.94,8.96-6.09,15.27.4,2.93-.9,6.86.59,8.66,1.59,1.91,5.62.48,8.59.58,2.99.1,5.98-.01,8.97.03,7.87.11,13.42,5.47,13.56,13.36.14,7.85.1,15.71-.01,23.56-.03,2.06.45,2.9,2.66,2.74,2.6-.19,5.23-.1,7.85-.02,7.04.2,12.65,5.52,12.77,12.54.18,10.34.18,20.69,0,31.04-.12,6.66-5.44,11.97-12.08,12.51-1.36.11-2.74.05-4.11.05-116.55,0-233.11-.05-349.66.13-7.8.01-13.39-2.4-17.19-9.08v-35.91c.79-.09.87-.81,1.12-1.32,2.66-5.32,6.94-7.91,12.9-7.76,1.74.04,3.5-.17,5.22.04,3.11.39,4.24-.43,4.16-3.92-.27-11.18-.11-22.38-.1-33.57,0-5.2,1.02-6.54,5.92-7.93,4.05.98,5.43,3.6,5.37,7.68-.17,11.34-.09,22.68,0,34.02,0,1.19-.98,2.97.82,3.56,1.58.52,2.35-1.12,3.28-2.04,5.06-4.99,10.4-9.74,15-15.13,5.42-6.34,11.77-8.97,20.06-8.22,5.68.51,12.08,1.57,17.01-.44,4.92-2.01,8.4-7.54,12.51-11.52.54-.52,1.06-1.05,1.61-1.57,1.96-1.84,4.28-3.33,6.92-3.34,2.98-.01,2.96-1.49,2.96-3.7-.06-23.18-.03-46.36-.06-69.55,0-1.01.5-2.19-.82-3.38-1.11,1.21-2.13,2.44-3.26,3.56-5.29,5.22-10.24,5.2-15.54-.04-3.1-3.07-6.17-6.17-9.26-9.25-7.43-7.42-7.45-11.39-.12-18.73,3.09-3.09,6.15-6.21,9.69-9.79-20.06,0-39.24.01-58.43-.03-1.63,0-2.47.23-2.46,2.2.07,14.71.07,29.41,0,44.12,0,1.81.57,2.37,2.35,2.31,3.74-.11,7.49.13,11.21-.08,4.2-.24,7.43,1.28,10.26,4.3,3.41,3.64,7.31,6.84,10.47,10.66,3.48,4.2,7.46,6.13,12.9,5.33,3.18-.47,6.22.27,8.62,2.64,3.19,3.15,6.44,6.26,9.52,9.51,2.59,2.73,2.54,6.01.13,8.29-2.22,2.11-5.46,2.03-8.04-.38-2.55-2.38-5-4.87-7.41-7.39-1.02-1.07-2.09-1.74-3.59-1.48-8.57,1.49-14.95-2.02-20.06-8.62-.98-1.27-2.48-2.16-3.38-3.48-4.88-7.13-11.64-9.44-19.93-8.11-.12.02-.25.02-.37,0-2.12-.33-2.74.56-2.7,2.67.12,7.73-.09,15.46.1,23.18.1,4.09-1.32,6.69-5.37,7.68-4.91-1.4-5.92-2.73-5.92-7.96,0-26.04,0-52.09,0-78.13,0-7.24,0-7.41-7.38-7.19C9.68,117.75,3.68,117.8,0,111.5,0,109.51,0,107.51,0,105.52c8.98-17.98,17.97-35.94,26.93-53.93,7.43-14.91,14.89-29.79,22.16-44.77C51.38,2.1,54.73,0,59.97,0c55.85.07,111.71.06,167.56,0,5.07,0,9.04,1.8,10.49,6.65,2.21,7.36,6.82,9.88,14.08,8.53,1.08-.2,2.24-.04,3.36-.03,5,.04,6.25.96,7.78,5.72-.87,4.1-3.43,5.8-7.56,5.52-2.23-.15-4.49-.03-6.73-.03-13.48,0-13.55.03-19.47-12.08-1.15-2.35-2.51-3.09-5.09-3.09-53.74.08-107.49.08-161.23,0-2.73,0-4.14.74-5.38,3.25-12.83,26.16-25.8,52.24-38.72,78.35-2.14,4.32-4.21,8.66-6.52,13.43h4.14c28.8,0,57.61-.03,86.41.06,2.59,0,4.37-.77,6.17-2.59,22.44-22.53,44.95-44.98,67.45-67.45,9.56-9.55,20.14-9.52,29.76.08,22.5,22.47,45.01,44.93,67.45,67.45,1.69,1.7,3.35,2.52,5.82,2.51,29.05-.09,58.11-.05,87.16-.08,1.05,0,2.19.34,3.18-.33-.02-.3.04-.57-.05-.77-8.38-16.97-16.8-33.91-25.12-50.91-.85-1.74-2.07-1.8-3.61-1.79-7.73.02-15.46-.09-23.19,0-4.79.06-8.07-1.95-10.06-6.29-1.24-2.71-2.64-5.36-4-8.02-1.92-3.77-2.99-8.7-6.03-10.96-3.24-2.41-8.42-.76-12.74-.7-4.13.05-6.69-1.46-7.56-5.56ZM187.78,41.7c-1.6.58-2.56,1.95-3.69,3.08-18.79,18.76-37.55,37.53-56.32,56.3-10.84,10.84-21.58,21.79-32.59,32.44-2.71,2.62-2.6,4.12.16,6.27,1.76,1.37,3.37,3,4.75,4.75,1.91,2.42,3.22,2.34,5.46.09,25.74-25.9,51.59-51.69,77.42-77.51,6.34-6.34,10.84-6.37,17.12-.1,24.94,24.94,49.88,49.88,74.82,74.82q5.63,5.63,11.06-.52,5.17-4.52.49-9.19c-21.73-21.73-43.47-43.47-65.2-65.21-7.83-7.83-15.64-15.68-23.51-23.47-3.5-3.46-5.91-3.82-9.95-1.77ZM316.02,273.83c.89-3.92,3.37-5.38,7.34-5.29,7.35.17,14.71-.04,22.07.08,2.29.04,3.3-.36,3.23-3-.19-7.23-.17-14.46-.02-21.69.06-3.01-1.13-3.85-3.98-3.8-8.35.14-16.77.68-25.04-.13-10.25-1-18.5,1.41-24.43,10.15-.27.41-.7.71-1.05,1.06-2.75,2.82-6.07,4.21-10.05,4.14-4.24-.08-8.48.09-12.72-.06-2.19-.08-3.21.43-3.03,2.85.2,2.6.18,5.24,0,7.85-.15,2.23.77,2.67,2.79,2.64,7.6-.1,15.21.08,22.81-.09,3.97-.09,6.44,1.38,7.34,5.29-1.16,4.85-2.59,5.97-7.85,5.97-30.92,0-61.83-.06-92.75.06-5.37.02-9.54-1.77-13.27-5.58-10.73-10.95-21.67-21.69-32.45-32.6-1.62-1.64-3.24-2.33-5.56-2.3-11.22.11-22.44.09-33.66.01-1.9-.01-3.28.53-4.6,1.9-3.63,3.77-7.38,7.43-11.08,11.13-2.88,2.88-6.35,4.24-10.43,4.21-6.73-.05-13.46-.02-20.2,0-1.1,0-2.35-.35-3.23.54-4.32,4.37-8.58,8.78-13.3,13.62,2.95,0,5.33.3,7.6-.05,11.16-1.73,20.27,1.35,26.81,10.89,1.19,1.74,2.91,1.97,4.89,1.95,9.47-.07,18.95-.05,28.42-.02,4.41.01,6.88,2.06,6.87,5.58,0,3.49-2.54,5.61-6.89,5.63-6.73.04-13.54-.64-20.18.16-11.25,1.35-20.25-1.6-26.81-11.07-.99-1.43-2.39-1.88-4.19-1.87-18.2.06-36.4.08-54.6,0-2.78-.01-3.71.94-3.65,3.7.15,7.48.08,14.96.09,22.44q0,5.34,5.33,5.34c116.69,0,233.37,0,350.06,0,.5,0,1-.05,1.5,0,2.73.3,3.77-.83,3.73-3.63-.13-8.6-.18-17.21.02-25.8.08-3.32-1.02-4.26-4.27-4.23-14.71.14-29.42.04-44.13,0-4.89-.01-6.34-1.2-7.48-5.96ZM257.18,204.15c0-20.32-.02-40.65.04-60.97,0-2.12-.47-3.7-2.05-5.27-20.51-20.4-40.96-40.86-61.37-61.36-1.6-1.6-2.48-2.04-4.36-.14-20.46,20.62-41.02,41.15-61.63,61.63-1.48,1.47-1.94,2.95-1.94,4.93.05,27.18.07,54.36-.03,81.55-.01,2.8.5,3.88,3.61,3.78,7.72-.24,15.47-.3,23.18.06,2.92.14,3.47-.47,3.45-3.22-.11-18.2-.07-36.41-.05-54.61,0-4.11-.12-8.24.18-12.33.36-4.93,3.9-8.43,8.78-8.47,17.71-.12,35.41-.12,53.12,0,4.74.03,8.17,3.43,8.76,8.1.2,1.6.19,3.23.19,4.85.01,34.04.05,68.08-.07,102.12-.01,3.13.81,3.97,3.91,3.86,7.6-.25,15.21-.23,22.81-.03,2.83.08,3.53-.71,3.51-3.51-.12-20.32-.07-40.65-.07-60.97ZM269.14,151.33c-1.09,2.07-.74,3.45-.74,4.75-.03,26.06-.04,52.12.01,78.19,0,3.19-1.4,7.29.66,9.33,1.88,1.86,5.96.14,9.01.6,5.35.8,9.38-1.02,12.55-5.29,5.83-7.83,13.45-11.59,23.35-9.97,2.31.38,3.02-.57,2.93-2.87-.17-4.61-.02-9.23-.05-13.84-.03-4.35,1.45-8.02,4.67-11,1.46-1.35,2.75-2.91,4.26-4.2,1.57-1.34,2.02-2.92,1.99-4.93-.1-6.48.07-12.97-.08-19.45-.11-4.68,1.55-8.43,4.88-11.66,4.66-4.51,9.15-9.19,13.8-13.71,1.53-1.48,2.3-3,2.26-5.22-.13-7.11-.17-14.22.02-21.32.07-2.66-.73-3.3-3.33-3.29-18.33.1-36.66.04-55,.06-.65,0-1.51-.42-2.17.97,1.89,1.75,3.93,3.57,5.89,5.47,1.98,1.9,3.95,3.82,5.81,5.83,3.91,4.24,4.07,9.31.2,13.4-4.28,4.53-8.7,8.94-13.22,13.22-4.02,3.8-9.02,3.75-13.1.03-1.61-1.46-2.93-3.24-4.6-5.11ZM215.78,183.8c-7.52,5.65-8.23,6.11-7.6,14.15.63,8.06-1.57,14.4-8.11,19.17-.2.15-.34.37-.53.52-3.96,3.17-6.54,6.77-5.76,12.36.44,3.17-2.25,5.51-5.2,5.63-2.91.12-5.51-2.04-5.79-5.22-.6-6.73-.49-13.32,5.9-17.76,6.87-4.78,9.52-11.25,8.15-19.53-.8-4.83,1.24-8.6,4.82-11.89,4.4-4.05,8.4-8.51,12.72-12.65,2.1-2.01,1.64-4.47,1.22-6.63-.43-2.2-2.74-1.02-4.14-1.03-13.58-.1-27.17.01-40.75-.16-2.85-.04-3.5.78-3.49,3.54.11,23.55.09,47.1.03,70.65,0,2.13.48,3.74,2.06,5.28,6.16,5.99,12.73,11.68,18.14,18.31,6.56,8.04,14.15,11.66,24.52,10.12,2.98-.44,3.9-.92,3.89-4-.12-25.67-.07-51.34-.07-77.01v-3.89Z"/>
  <path class="cls-2" d="M277.75,20.89c.87,4.1,3.43,5.62,7.56,5.56,4.32-.06,9.5-1.7,12.74.7,3.05,2.26,4.11,7.2,6.03,10.96,1.36,2.66,2.75,5.31,4,8.02,1.99,4.34,5.27,6.34,10.06,6.29,7.73-.09,15.46.02,23.19,0,1.54,0,2.75.05,3.61,1.79,8.32,17,16.74,33.94,25.12,50.91.1.2.04.47.05.77-1,.67-2.13.32-3.18.33-29.05.02-58.11-.01-87.16.08-2.48,0-4.13-.81-5.82-2.51-22.45-22.52-44.95-44.98-67.45-67.45-9.61-9.6-20.2-9.62-29.76-.08-22.5,22.47-45.01,44.92-67.45,67.45-1.81,1.81-3.58,2.59-6.17,2.59-28.8-.09-57.61-.06-86.41-.06h-4.14c2.31-4.77,4.38-9.12,6.52-13.43,12.92-26.11,25.9-52.19,38.72-78.35,1.23-2.51,2.64-3.26,5.38-3.25,53.74.09,107.49.09,161.23,0,2.58,0,3.94.74,5.09,3.09,5.92,12.11,5.99,12.08,19.47,12.08,2.24,0,4.5-.13,6.73.03,4.13.28,6.69-1.42,7.56-5.52,4.83,0,9.67,0,14.5,0Z"/>
  <path class="cls-1" d="M316.02,273.83c1.14,4.76,2.59,5.95,7.48,5.96,14.71.03,29.42.13,44.13,0,3.26-.03,4.35.91,4.27,4.23-.21,8.6-.15,17.2-.02,25.8.04,2.8-1,3.93-3.73,3.63-.49-.05-1,0-1.5,0-116.69,0-233.37,0-350.06,0q-5.32,0-5.33-5.34c-.01-7.48.06-14.96-.09-22.44-.06-2.76.87-3.71,3.65-3.7,18.2.09,36.4.07,54.6,0,1.79,0,3.19.44,4.19,1.87,6.56,9.47,15.56,12.42,26.81,11.07,6.64-.8,13.45-.12,20.18-.16,4.35-.02,6.89-2.14,6.89-5.63,0-3.52-2.46-5.57-6.87-5.58-9.47-.03-18.95-.05-28.42.02-1.98.02-3.7-.21-4.89-1.95-6.54-9.54-15.65-12.62-26.81-10.89-2.28.35-4.65.05-7.6.05,4.71-4.84,8.98-9.25,13.3-13.62.88-.89,2.13-.54,3.23-.54,6.73-.02,13.46-.05,20.2,0,4.08.03,7.55-1.33,10.43-4.21,3.7-3.7,7.45-7.36,11.08-11.13,1.31-1.37,2.7-1.91,4.6-1.9,11.22.08,22.44.1,33.66-.01,2.32-.02,3.94.67,5.56,2.3,10.78,10.9,21.73,21.64,32.45,32.6,3.74,3.81,7.91,5.6,13.27,5.58,30.92-.11,61.83-.05,92.75-.06,5.26,0,6.7-1.12,7.85-5.97,4.91,0,9.82,0,14.73,0Z"/>
  <path class="cls-1" d="M257.18,204.15c0,20.32-.06,40.65.07,60.97.02,2.8-.68,3.59-3.51,3.51-7.6-.2-15.22-.22-22.81.03-3.11.1-3.92-.73-3.91-3.86.12-34.04.08-68.08.07-102.12,0-1.62,0-3.25-.19-4.85-.59-4.68-4.02-8.07-8.76-8.1-17.71-.11-35.41-.12-53.12,0-4.89.03-8.43,3.53-8.78,8.47-.29,4.09-.17,8.22-.18,12.33-.01,18.2-.06,36.41.05,54.61.02,2.75-.54,3.36-3.45,3.22-7.71-.37-15.46-.31-23.18-.06-3.11.1-3.62-.98-3.61-3.78.1-27.18.07-54.36.03-81.55,0-1.98.46-3.46,1.94-4.93,20.6-20.49,41.16-41.01,61.63-61.63,1.88-1.89,2.76-1.46,4.36.14,20.41,20.5,40.86,40.96,61.37,61.36,1.58,1.57,2.05,3.15,2.05,5.27-.06,20.32-.04,40.65-.04,60.97Z"/>
  <path class="cls-1" d="M29.21,225.39c0-4.85,0-9.69,0-14.54,4.04-.99,5.47-3.59,5.37-7.68-.2-7.72.01-15.45-.1-23.18-.03-2.11.58-3.01,2.7-2.67.12.02.25.02.37,0,8.29-1.33,15.05.98,19.93,8.11.9,1.31,2.4,2.21,3.38,3.48,5.11,6.6,11.49,10.11,20.06,8.62,1.5-.26,2.57.41,3.59,1.48,2.41,2.52,4.86,5.01,7.41,7.39,2.58,2.41,5.82,2.49,8.04.38,2.41-2.28,2.45-5.56-.13-8.29-3.08-3.26-6.33-6.36-9.52-9.51-2.41-2.37-5.44-3.1-8.62-2.64-5.45.8-9.42-1.13-12.9-5.33-3.17-3.82-7.07-7.03-10.47-10.66-2.83-3.02-6.06-4.54-10.26-4.3-3.73.21-7.48-.03-11.21.08-1.77.05-2.35-.5-2.35-2.31.06-14.71.07-29.41,0-44.12,0-1.96.83-2.2,2.46-2.2,19.18.04,38.37.03,58.43.03-3.54,3.58-6.61,6.7-9.69,9.79-7.33,7.34-7.31,11.3.12,18.73,3.09,3.08,6.16,6.18,9.26,9.25,5.3,5.24,10.25,5.26,15.54.04,1.13-1.12,2.16-2.34,3.26-3.56,1.32,1.18.82,2.37.82,3.38.04,23.18,0,46.36.06,69.55,0,2.21.02,3.69-2.96,3.7-2.63.01-4.96,1.5-6.92,3.34-.55.51-1.07,1.04-1.61,1.57-4.11,3.99-7.59,9.51-12.51,11.52-4.92,2.01-11.33.96-17.01.44-8.29-.75-14.64,1.88-20.06,8.22-4.6,5.38-9.95,10.14-15,15.13-.93.92-1.7,2.57-3.28,2.04-1.8-.6-.82-2.38-.82-3.56-.09-11.34-.16-22.68,0-34.02.06-4.08-1.31-6.7-5.37-7.68Z"/>
  <path class="cls-1" d="M269.14,151.33c1.67,1.87,2.99,3.64,4.6,5.11,4.08,3.72,9.08,3.77,13.1-.03,4.53-4.28,8.94-8.7,13.22-13.22,3.87-4.09,3.71-9.16-.2-13.4-1.86-2.01-3.83-3.93-5.81-5.83-1.97-1.89-4-3.72-5.89-5.47.66-1.39,1.52-.97,2.17-.97,18.33-.02,36.66.05,55-.06,2.59-.01,3.4.62,3.33,3.29-.19,7.1-.15,14.22-.02,21.32.04,2.21-.74,3.73-2.26,5.22-4.65,4.52-9.14,9.2-13.8,13.71-3.33,3.22-4.98,6.97-4.88,11.66.15,6.48-.03,12.97.08,19.45.03,2.02-.41,3.59-1.99,4.93-1.51,1.29-2.8,2.85-4.26,4.2-3.22,2.98-4.7,6.64-4.67,11,.03,4.61-.11,9.23.05,13.84.08,2.3-.63,3.25-2.93,2.87-9.89-1.63-17.52,2.13-23.35,9.97-3.18,4.27-7.21,6.09-12.55,5.29-3.05-.46-7.13,1.26-9.01-.6-2.05-2.03-.65-6.14-.66-9.33-.06-26.06-.04-52.12-.01-78.19,0-1.31-.35-2.68.74-4.75Z"/>
  <path class="cls-2" d="M215.78,183.8v3.89c0,25.67-.05,51.34.07,77.01.01,3.09-.91,3.56-3.89,4-10.37,1.54-17.95-2.08-24.52-10.12-5.41-6.63-11.98-12.32-18.14-18.31-1.58-1.54-2.07-3.15-2.06-5.28.06-23.55.08-47.1-.03-70.65-.01-2.76.64-3.58,3.49-3.54,13.58.17,27.17.05,40.75.16,1.41.01,3.72-1.17,4.14,1.03.42,2.16.88,4.61-1.22,6.63-4.32,4.13-8.33,8.6-12.72,12.65-3.57,3.29-5.62,7.05-4.82,11.89,1.37,8.28-1.27,14.75-8.15,19.53-6.39,4.44-6.49,11.03-5.9,17.76.28,3.18,2.87,5.34,5.79,5.22,2.96-.12,5.65-2.46,5.2-5.63-.78-5.59,1.8-9.19,5.76-12.36.19-.15.34-.38.53-.52,6.53-4.78,8.74-11.11,8.11-19.17-.63-8.04.08-8.5,7.6-14.15Z"/>
  <path class="cls-2" d="M285.95,141.34q-5.43,6.15-11.06.52c-24.94-24.94-49.88-49.88-74.82-74.82-6.28-6.27-10.77-6.25-17.12.1-25.83,25.82-51.68,51.6-77.42,77.51-2.24,2.25-3.55,2.33-5.46-.09-1.38-1.75-3-3.38-4.75-4.75-2.76-2.15-2.87-3.65-.16-6.27,11.02-10.66,21.75-21.6,32.59-32.44,18.77-18.77,37.54-37.54,56.32-56.3,1.13-1.13,2.09-2.5,3.69-3.08.96,1.13,1.86,2.32,2.91,3.36,30.81,30.83,61.63,61.64,92.43,92.47,1.12,1.12,2.62,1.99,2.84,3.8Z"/>
  <path class="cls-1" d="M316.02,273.83c-4.91,0-9.82,0-14.73,0-.9-3.91-3.37-5.38-7.34-5.29-7.6.17-15.21,0-22.81.09-2.02.03-2.95-.41-2.79-2.64.18-2.61.19-5.24,0-7.85-.18-2.42.84-2.93,3.03-2.85,4.23.15,8.48-.02,12.72.06,3.98.07,7.29-1.32,10.05-4.14.35-.36.77-.66,1.05-1.06,5.93-8.74,14.17-11.15,24.43-10.15,8.27.81,16.69.27,25.04.13,2.86-.05,4.05.79,3.98,3.8-.15,7.23-.17,14.46.02,21.69.07,2.63-.93,3.04-3.23,3-7.35-.12-14.71.09-22.07-.08-3.96-.09-6.44,1.38-7.34,5.29Z"/>
  <path class="cls-2" d="M285.95,141.34c-.22-1.81-1.72-2.68-2.84-3.8-30.8-30.83-61.62-61.64-92.43-92.47-1.04-1.05-1.94-2.24-2.91-3.36,4.04-2.05,6.45-1.69,9.95,1.77,7.87,7.79,15.68,15.64,23.51,23.47,21.73,21.73,43.46,43.47,65.2,65.21q4.68,4.68-.49,9.19Z"/>
</svg>