<?xml version="1.0" encoding="UTF-8"?>
<svg id="Capa_1" data-name="Capa 1" xmlns="http://www.w3.org/2000/svg" viewBox="0 0 344.78 386.23">
  <defs>
    <style>
      .cls-1 {
        fill: #FFD057;
        stroke-width: 0px;
      }
    </style>
  </defs>
  <path class="cls-1" d="M344.59,283.36c-2.13-15.92-19.64-23.4-32.98-14.11-9.19,6.41-18.19,13.11-27.18,19.81-1.94,1.44-2.53,1.31-3.53-.96-3.37-7.59-9.56-11.35-17.65-12.65-29.87-4.79-59.71-9.75-89.57-14.61-9.32-1.52-18.58-3.64-28.06-.44-6.79,2.28-12.54,6.27-17.67,10.9-7.83,7.05-17.05,6.61-26.42,6.42-.87-.02-1.4-.41-1.84-1.03-3.25-4.58-7.94-5.49-13.18-5.48-23.68.07-47.37.03-71.06.04-1.25,0-2.49.04-3.74.11-5.79.31-8.79,4.41-11.71,8.62v71.83c.31.34.73.62.93,1.02,2.77,5.69,7.4,7.96,13.62,7.94,24.31-.08,48.62-.07,72.93-.01,4.9.01,9.14-1.21,12.09-5.35,1.02-1.42,2.35-1.03,3.66-1.18,12.8-1.45,24.5,2.46,36.25,6.87,20.13,7.56,40.46,14.59,60.67,21.93,3.1,1.13,6.47,1.47,9.36,3.2h12.72c.24-.23.47-.64.73-.67,8.57-1,15.85-4.84,22.47-10.16,15.33-12.35,30.68-24.69,46.02-37.03,14.86-11.95,29.7-23.92,44.59-35.83,6.19-4.95,9.62-11.21,8.55-19.18ZM328.52,292.18c-9.02,7.29-18.06,14.54-27.1,21.8-21.28,17.11-42.59,34.16-63.81,51.33-10.2,8.25-21.18,10.08-33.56,5.53-23.7-8.71-47.58-16.94-71.24-25.76-8.78-3.27-17.68-4.03-26.8-3.55-3.2.17-3.91-.88-3.87-3.94.16-14.46.18-28.93-.01-43.39-.04-3.21.92-4.05,3.97-3.79,10.86.93,21.05-1.14,29.11-8.9,10.71-10.31,22.89-10.86,36.74-8.29,29.86,5.55,59.92,10.05,89.9,14.98,4.51.74,7.05,2.83,7.73,6.42.88,4.64-2.62,8.54-7.89,8.56-14.71.05-29.43.02-44.14.02s-29.43-.04-44.15.02c-5.79.02-9.09,4.9-6.54,9.46,1.37,2.43,3.54,3.31,6.25,3.29,6.49-.05,12.97.06,19.45-.06,2.14-.03,3.73.6,5.35,2,7.64,6.6,15.4,13.06,23.1,19.59,6.1,5.18,11.04,5.44,17.54.72,26.3-19.14,52.58-38.29,78.86-57.47,2.15-1.57,4.33-3.1,7.12-2.76,3.29.4,5.91,1.94,7.02,5.31,1.23,3.71-.18,6.58-3.03,8.88ZM247.16,316.06c-4.62,3.41-8.84,6.12-12.56,9.39-3.23,2.85-5.53,2.88-8.55-.3-2.99-3.14-6.57-5.71-10.55-9.09h31.66Z"/>
  <g>
    <path class="cls-1" d="M254.38,91.97c-15.68-35.28-52.39-56.86-90.08-53.08-20.01,2.02-37.46,9.59-52.28,23.17-4.07,3.74-4.33,5.53-1.9,10.45-2.91,3.61-5.03,7.87-8.73,10.85-5.26-.37-6.9.48-9.05,4.71-16.75,32.96-10.32,75.17,15.45,101.56,29.42,30.12,73.6,36.2,110.08,15.15,38.6-22.28,54.61-72.1,36.51-112.81ZM208.42,101.13c-15.61,20.06-31.2,40.13-46.8,60.19-4.94,6.34-7.86,6.49-13.56.8-3.79-3.79-7.61-7.55-11.35-11.38-3.24-3.31-3.42-6.75-.63-9.54,2.7-2.71,6.39-2.55,9.59.5,2.07,1.97,4.2,3.92,6.05,6.1,1.75,2.05,2.77,1.96,4.43-.22,9-11.78,18.14-23.45,27.25-35.14,5.28-6.79,10.58-13.55,15.9-20.31,1.96-2.49,4.63-2.98,7.4-1.92,2.52.97,3.89,3.03,3.78,6,.14,1.89-.89,3.42-2.06,4.92Z"/>
    <path class="cls-1" d="M211.31,247.82c-2.67.12-5.26-.36-7.76-1.13-5.31-1.63-9.95-.61-14.35,2.78-10.69,8.25-22.92,8.2-33.69-.11-4.29-3.31-8.82-4.18-14.02-2.79-13.09,3.5-24.5-1.19-31.16-12.86-2.6-4.56-6.21-7.12-11.45-7.95-14.46-2.3-22.07-9.85-24.36-24.22-.86-5.37-3.49-9.08-8.15-11.75-11.35-6.49-16.26-17.99-12.88-30.52,1.53-5.65.63-10.4-2.96-15.02-7.88-10.13-7.93-22.69-.09-32.79,3.58-4.61,4.62-9.32,3.07-14.99-3.47-12.75,1.43-24.22,12.95-30.8,4.39-2.51,7.11-5.93,7.88-11.08,2.22-14.77,9.84-22.35,24.65-24.75,4.86-.79,8.47-3.2,11.01-7.47,7.28-12.23,18.02-16.77,31.69-13.28,5.11,1.3,9.5.38,13.68-2.77,11.34-8.54,22.83-8.46,34.28.17,4.06,3.06,8.36,3.95,13.35,2.64,13.89-3.64,24.61.86,31.92,13.36,2.61,4.46,6.4,6.78,11.4,7.44,13.47,1.78,22.18,10.35,23.96,23.69.73,5.47,3.35,9.4,8.19,12.15,11.52,6.56,16.25,17.9,12.79,30.82-1.48,5.54-.4,10.17,3.03,14.68,7.88,10.35,7.85,22.73-.09,33.14-3.45,4.52-4.41,9.17-2.92,14.69,3.45,12.78-1.4,24.31-12.92,30.8-4.88,2.75-7.43,6.7-8.11,12.17-1.53,12.5-10.14,21.59-22.58,23.34-6.34.89-10.64,3.77-13.83,9.37-4.87,8.57-12.74,12.62-22.52,12.99ZM134.52,20.9c-5.85-.16-10.11,2-12.61,6.65-4.97,9.2-12.56,14.11-22.87,15.26-5.9.66-10.4,5.2-11.52,11.15-.37,1.95-.55,3.96-1.09,5.86-2.09,7.41-6.4,13.05-13.23,16.84-6.86,3.81-9.26,9.19-7.22,16.58,2.66,9.64.76,18.11-5.3,25.95-4.15,5.36-4.36,11.88-.27,16.94,6.68,8.26,8.23,17.23,5.34,27.32-1.56,5.46.59,11.57,5.54,14.3,9.6,5.3,14.88,13.06,16.3,23.93.84,6.44,4.99,10.21,11.42,11.04,10.27,1.33,17.79,6.28,22.91,15.34,3.32,5.88,9.17,8.14,15.67,6.27,9.76-2.8,18.34-.97,26.26,5.32,5.22,4.15,11.68,4.22,16.93.11,8.18-6.39,17.03-8.13,27.01-5.34,6,1.68,12.26-.73,15.1-6.1,4.91-9.29,12.58-13.99,22.74-15.54,7.37-1.12,10.9-5.19,11.97-12.69,1.34-9.32,5.83-16.5,14.21-21.17,6.6-3.67,9.18-8.99,7.2-16.26-2.67-9.8-.86-18.34,5.32-26.31,4.22-5.44,4.05-11.27.11-16.96-1.2-1.74-2.54-3.4-3.56-5.25-3.9-7.09-3.63-14.45-1.7-22.09,1.54-6.12-.9-11.69-6.26-14.63-9.15-5-14.06-12.59-15.42-22.84-.93-6.95-5.36-10.98-12.41-11.87-8.64-1.08-16.1-4.69-20.21-12.43-4.2-7.9-10.5-11.09-20.63-8.39-7.53,2.01-14.61.23-20.91-4.25-8.87-6.31-12.6-6.42-21.46-.15-6.82,4.82-14.27,6.26-22.35,4.22-1.83-.46-3.63-.87-5.01-.82Z"/>
  </g>
</svg>