<?xml version="1.0" encoding="UTF-8"?>
<svg id="Capa_1" data-name="Capa 1" xmlns="http://www.w3.org/2000/svg" viewBox="0 0 383.14 308.67">
  <defs>
    <style>
      .cls-1 {
        fill: transparent;
      }

      .cls-1, .cls-2, .cls-3 { 
        stroke-width: 0px;
      }

      .cls-2 {
        fill: #FFD057;
      }

      .cls-3 {
        fill: #14243A;
      }
    </style>
  </defs>
  <path class="cls-3" d="M0,258.37c2.38-3.06,4.86-5.91,9.22-5.99,2.18-.04,1.18-1.86,1.18-2.83.07-11.97.05-23.94.05-35.9,0-27.05.09-54.1-.05-81.16-.05-9.27,3.54-16.19,11.21-21.4C73.51,75.85,125.35,40.52,177.22,5.23c10.26-6.98,18.36-6.96,28.64,0,10.1,6.84,20.14,13.76,30.28,20.55,3.11,2.08,4.43,4.6,3.07,8.23-3.32,3.37-5.19,3.64-9.04,1.04-10.58-7.15-21.08-14.4-31.68-21.52-4.88-3.28-9.03-3.17-13.7.07-.75.43-1.53.81-2.24,1.29C131.36,49.71,80.22,84.6,28.96,119.31c-5.31,3.6-7.59,7.79-7.57,14.23.18,45.64.1,91.27.1,136.91,0,.75.07,1.5-.01,2.24-.21,1.85.66,2.34,2.38,2.3,3.86-.09,7.75-.24,11.59.04,3.3.24,4.33-.64,4.32-4.17-.14-43.39-.03-86.78-.17-130.18-.01-4.66,1.63-7.61,5.42-10.18,47.01-31.88,93.95-63.87,140.9-95.83,4.73-3.22,6.46-3.23,11.16-.03,47.06,32.03,94.1,64.09,141.21,96.04,3.72,2.52,5.17,5.51,5.16,9.95-.11,41.77-.06,83.54-.06,125.31q0,9.53,9.78,8.85c.99.05,1.98.15,2.98.16q5.39.04,5.39-5.21c0-44.99-.14-89.97.14-134.96.05-7.5-2.56-12.17-8.71-16.29-33.08-22.2-65.94-44.73-98.87-67.16-4.4-3-4.84-4.3-3.22-8.99,2.91-2.77,5.77-2.58,9.04-.35,33.93,23.17,67.9,46.29,101.89,69.37,7.43,5.04,10.85,11.93,10.83,20.87-.07,38.78-.01,77.57-.07,116.35,0,2.48.06,3.88,3.27,4.2,4.29.44,7.19,4.25,7.23,8.7.1,12.72.12,25.44-.01,38.16-.06,5.19-3.91,8.71-9.14,8.91-.75.03-1.5.01-2.24.01-83.05,0-166.11,0-249.16,0-5.52,0-6.35-.56-8.03-5.29,1.51-5,2.56-5.69,8.9-5.69,81.14,0,162.28,0,243.43,0,1.12,0,2.24-.03,3.37,0,1.14.03,1.91-.25,1.9-1.62-.03-4.76-.01-9.51-.01-15.4-3.08,4.56-6.6,5.69-10.66,5.57-6.23-.03-12.46-.04-18.68-.1-6.72-.06-10.3-3.67-10.39-10.43-.04-2.62-.28-5.27.06-7.84.5-3.75-.98-4.37-4.46-4.36-90.96.1-181.92.08-272.87.08-.75,0-1.5.07-2.24-.01-1.68-.2-2.13.56-2.09,2.14.09,3.49.11,6.98,0,10.47-.19,6.3-3.84,9.89-10.13,9.95-5.86.06-11.72-.1-17.57.05-4.5.12-8.68-.28-11.79-5.37,0,3.25,0,5.42,0,7.6-.06,1.49,0,2.99-.21,4.45-.55,3.72.63,4.97,4.68,4.94,25.22-.21,50.44-.11,75.67-.1,5.49,0,6.63.83,8.14,5.67-.97,4.6-4.12,5.39-8.32,5.37-26.12-.13-52.24-.2-78.36.04-5.6.05-9.91-1.26-12.82-6.16v-44.15ZM120.45,149.69c-4.09-.07-8.2,0-12.28-.26-3.17-.21-5.68.81-8.25,2.59-13.59,9.4-27.28,18.65-40.95,27.95q-8.58,5.84-8.21,16.3c0,.25.08.49.13.73v10.57c28.38-19.32,56.34-38.36,85.03-57.89h-15.47ZM332.16,194.01c.05-.99-.01-2,.17-2.97.84-4.51-1.23-7.09-4.97-9.54-13.61-8.92-27.23-17.87-40.32-27.52-6.11-4.5-12.29-5.16-19.2-4.26h-18.63c-.04.25-.09.49-.13.74,27.6,18.78,55.19,37.56,83.08,56.54,0-4.78,0-8.89,0-12.99ZM290.31,120.47c-.99-.09-1.97-.27-2.96-.27-68.33-.01-136.66-.01-204.99-.02-1.37,0-2.68.01-3.91.89-4.15,2.96-8.37,5.84-12.56,8.75-4.05,2.7-8.1,5.4-12.15,8.1.12.21.24.41.36.62h3.7c34.39,0,68.78,0,103.17,0,5.03,0,6.13.83,7.49,5.43-1.35,4.6-2.39,5.51-7.49,5.4-2.59-.06-3.39.65-3.34,3.3.17,8.35.16,16.71,0,25.06-.04,2.44.63,3.1,3.08,3.09,20.83-.1,41.65-.11,62.48,0,2.62.01,3.01-.92,2.98-3.19-.12-8.23-.22-16.47.04-24.69.1-3.18-1.08-3.61-3.82-3.58-10.72.14-21.45.08-32.17.04-4.72-.02-5.9-.99-7.08-5.45,1.19-4.51,2.42-5.44,7.44-5.44,44.87,0,89.74,0,134.61,0,1.3,0,2.59,0,5.01,0-7.22-4.92-13.85-8.71-19.62-13.54-6.21-5.21-13-5.39-20.28-4.53ZM191.93,252.4c10.35,0,20.7-.1,31.05.07,2.68.04,3.27-.74,3.22-3.31-.17-8.48-.13-16.96-.02-25.44.03-2.06-.46-2.77-2.66-2.76-21.07.08-42.15.08-63.22,0-2.23,0-2.66.75-2.64,2.78.1,8.6.12,17.21-.01,25.81-.04,2.27.51,2.94,2.86,2.91,10.47-.14,20.95-.06,31.42-.06ZM84.18,252.4c10.1,0,20.2-.09,30.29.06,2.52.04,3.06-.75,3.02-3.12-.14-8.47-.13-16.95,0-25.43.03-2.2-.41-2.97-2.83-2.96-20.44.11-40.89.1-61.33.01-2.22,0-2.66.73-2.64,2.77.1,8.48.15,16.96-.02,25.43-.05,2.57.55,3.35,3.22,3.3,10.09-.17,20.19-.07,30.29-.07ZM299.04,252.4c10.09,0,20.19-.09,30.28.06,2.48.04,3.08-.68,3.04-3.09-.15-8.47-.12-16.95-.01-25.42.03-2.13-.3-3.02-2.78-3-20.19.11-40.37.1-60.56.01-2.18,0-2.68.68-2.65,2.74.11,8.6.17,17.2-.03,25.79-.06,2.65.93,2.97,3.18,2.95,9.84-.11,19.69-.05,29.53-.05ZM237.8,156.1c-.36.31-.51.38-.51.45-.04,31.28-.06,62.55-.13,93.83,0,1.72.7,2.07,2.22,2.04,4.48-.07,8.97-.12,13.46,0,1.94.05,2.56-.55,2.55-2.52-.06-26.54-.04-53.08-.03-79.63,0-1.13.04-2.22-1.08-2.98-5.53-3.74-11.04-7.5-16.47-11.2ZM146.64,155.75c-2.54,1.72-4.5,3-6.41,4.34-3.87,2.7-9.19,4.65-11.15,8.37-1.96,3.73-.61,9.23-.62,13.96-.02,22.18.04,44.35-.08,66.53-.01,2.78.64,3.7,3.49,3.51,3.97-.26,7.98-.23,11.95-.02,2.4.13,2.88-.72,2.86-2.95-.12-9.84-.05-19.68-.05-29.53,0-21.17,0-42.34,0-64.22ZM191.89,191.8c-10.46,0-20.91.04-31.37-.03-1.94-.01-2.96.29-2.87,2.59.17,4.35.18,8.72.02,13.07-.08,2.31.96,2.61,2.9,2.6,20.91-.05,41.82-.07,62.73.02,2.44.01,2.91-.9,2.84-3.05-.13-4.1-.15-8.22.02-12.32.1-2.28-.59-2.96-2.91-2.93-10.45.13-20.91.05-31.37.05ZM200.58,79.51c0-8.34-.16-16.68.08-25.01.09-3.12-.86-4.95-3.51-6.61-5.76-3.6-5.68-3.78-11.3.13-1.55,1.07-3.47,1.67-3.45,4.33.11,18.17.08,36.34.02,54.51,0,2.01.72,2.55,2.62,2.5,4.23-.12,8.47-.17,12.69,0,2.34.1,2.94-.72,2.91-2.97-.11-8.96-.05-17.92-.05-26.88ZM315.66,209.52c-.26-.32-.41-.65-.66-.82-7.8-5.34-15.6-10.67-23.4-16-.84-.58-1.72-.9-2.77-.89-6.72.03-13.44.06-20.16-.04-1.85-.03-2.33.66-2.28,2.39.1,3.86.25,7.73-.02,11.57-.23,3.28.61,4.43,4.17,4.37,13.81-.23,27.63-.08,41.45-.11,1.17,0,2.43.37,3.69-.46ZM68.02,209.29c.54.39.72.62.9.62,15.42.04,30.85.04,46.27.11,1.87,0,2.29-.77,2.26-2.45-.08-4.48-.08-8.96.02-13.44.04-1.75-.47-2.44-2.3-2.37-3.11.12-6.26.36-9.32-.03-8.64-1.1-15.92,1.41-22.6,6.95-4.7,3.91-10.05,7.04-15.23,10.6ZM116.66,95.12c6.4,4.37,12.46,8.44,18.44,12.62,1.61,1.12,3.2,1.64,5.17,1.62,8.71-.09,17.43-.03,26.14-.09.7,0,1.73.62,2.25-.79-11.38-7.76-22.78-15.52-34.17-23.29-.97-.66-1.8-1.04-2.98-.22-4.76,3.33-9.59,6.56-14.85,10.14ZM215.25,109.29c10.12,0,20.15,0,30.19-.02.47,0,1.03-.11,1.41-.37,6.54-4.4,13.06-8.83,19.95-13.5-4.93-3.37-9.4-6.29-13.71-9.44-1.82-1.33-3.07-1.29-4.92,0-10.23,7.11-20.56,14.05-30.84,21.09-.75.51-1.88.72-2.08,2.24ZM211.86,57.97v39.49c9.82-6.69,19.26-13.13,28.99-19.76-9.82-6.68-19.15-13.03-28.99-19.73ZM142.62,77.44c9.7,6.59,19.04,12.94,28.53,19.39v-38.83c-9.69,6.6-18.96,12.91-28.53,19.43ZM50.73,172.31c11.36-7.74,21.95-14.95,32.54-22.16-10.4-.69-20.55-.67-30.69-.72-1.53,0-1.87.69-1.86,2.04.04,6.67.02,13.35.02,20.84ZM332.31,171.74c0-7-.09-13.33.05-19.65.05-2.18-.7-2.7-2.76-2.68-8.82.1-17.65.03-26.47.07-.75,0-1.74-.51-2.38.78,10.31,7.02,20.62,14.04,31.55,21.48ZM117.88,109.22c-3.92-2.67-7.04-4.8-10.16-6.92-.55-.38-1.11-.46-1.72-.03-3.09,2.16-6.2,4.29-10.05,6.95h21.92ZM266.24,109.11h20.79c-3.52-2.42-6.35-4.37-9.19-6.31-.74-.5-1.39-.79-2.3-.13-2.86,2.07-5.79,4.02-9.3,6.44ZM110.5,180.27c6.85,1.38,7.28,1.1,6.59-4.42-2.13,1.43-4.12,2.76-6.59,4.42ZM266.66,175.74c-.49,5.61.2,6.05,6.56,4.45-2.14-1.45-4.15-2.82-6.56-4.45Z"/>
  <path class="cls-2" d="M361.53,269.73q0,5.25-5.39,5.21c-.99,0-1.98-.1-2.97-.15q-9.78.68-9.78-8.85c0-41.78-.05-83.55.06-125.32,0-4.44-1.44-7.43-5.16-9.95-47.11-31.95-94.15-64.01-141.21-96.04-4.7-3.2-6.43-3.19-11.17.03-46.95,31.96-93.89,63.95-140.9,95.83-3.79,2.57-5.44,5.52-5.42,10.18.14,43.39.03,86.78.17,130.18,0,3.53-1.02,4.41-4.32,4.17-3.84-.28-7.73-.13-11.59-.04-1.72.04-2.59-.45-2.38-2.3.09-.73.01-1.49.01-2.24,0-45.63.09-91.27-.09-136.91-.03-6.43,2.25-10.63,7.56-14.22C80.22,84.6,131.35,49.71,182.53,14.88c.71-.48,1.5-.86,2.25-1.29,4.67-3.23,8.82-3.35,13.7-.07,10.59,7.13,21.1,14.38,31.68,21.53,3.85,2.6,5.72,2.32,9.04-1.04,3.5,3.32,7.83,5.48,11.67,8.33-1.61,4.68-1.17,5.99,3.23,8.98,32.93,22.43,65.79,44.96,98.87,67.16,6.14,4.12,8.75,8.79,8.7,16.29-.28,44.98-.14,89.97-.14,134.96Z"/>
  <path class="cls-1" d="M372.06,295.95c.01,1.37-.76,1.65-1.9,1.62-1.13-.03-2.25,0-3.37,0-81.14,0-162.28,0-243.43,0-6.33,0-7.39.68-8.89,5.68-4.99,0-9.98,0-14.97-.01-1.52-4.84-2.65-5.67-8.14-5.67-25.22,0-50.45-.11-75.67.1-4.04.03-5.23-1.21-4.68-4.94.22-1.46.15-2.96.21-4.45v-7.59c3.12,5.09,7.3,5.48,11.79,5.36,5.86-.15,11.72.01,17.57-.05,6.29-.06,9.94-3.64,10.13-9.94.1-3.49.09-6.98,0-10.47-.04-1.58.42-2.34,2.09-2.14.74.09,1.5.01,2.24.01,90.96,0,181.92.02,272.88-.08,3.48,0,4.96.62,4.46,4.36-.35,2.57-.1,5.23-.06,7.84.09,6.76,3.68,10.37,10.39,10.43,6.23.06,12.46.07,18.69.1,4.06.12,7.58-1.01,10.66-5.57,0,5.89-.02,10.65.01,15.4Z"/>
  <path class="cls-2" d="M330.21,138.54h-5.01c-44.87,0-89.75,0-134.62.01-5.02,0-6.25.93-7.44,5.44-4.89,0-9.78-.01-14.68-.01-1.36-4.6-2.46-5.43-7.49-5.43-34.39-.01-68.78-.01-103.17-.01h-3.7c-.12-.2-.24-.41-.36-.62,4.05-2.7,8.1-5.4,12.15-8.1,4.19-2.91,8.41-5.79,12.56-8.75,1.23-.88,2.53-.89,3.91-.89,68.33,0,136.66,0,204.99.01.99,0,1.97.18,2.96.28,7.28-.86,14.07-.68,20.28,4.53,5.76,4.83,12.39,8.63,19.62,13.54Z"/>
  <path class="cls-1" d="M237.8,156.1c5.44,3.7,10.95,7.46,16.47,11.2,1.12.75,1.08,1.85,1.08,2.98,0,26.54-.02,53.09.03,79.63,0,1.97-.61,2.57-2.55,2.52-4.48-.12-8.97-.08-13.46,0-1.52.02-2.22-.32-2.22-2.04.07-31.28.09-62.55.13-93.83,0-.07.16-.15.51-.45Z"/>
  <path class="cls-1" d="M146.64,155.75c0,21.88,0,43.05,0,64.22,0,9.84-.07,19.69.05,29.53.03,2.23-.46,3.08-2.86,2.95-3.98-.21-7.98-.24-11.95.02-2.85.19-3.51-.74-3.49-3.51.12-22.18.05-44.35.08-66.53,0-4.73-1.35-10.23.62-13.96,1.95-3.72,7.28-5.67,11.15-8.37,1.92-1.34,3.88-2.63,6.41-4.34Z"/>
  <path class="cls-1" d="M191.89,191.8c10.46,0,20.91.07,31.37-.05,2.32-.03,3.01.65,2.91,2.93-.18,4.1-.16,8.22-.02,12.32.07,2.15-.39,3.06-2.84,3.05-20.91-.09-41.82-.07-62.73-.02-1.94,0-2.98-.3-2.9-2.6.16-4.35.16-8.72-.02-13.07-.09-2.3.92-2.6,2.87-2.59,10.45.07,20.91.03,31.37.03Z"/>
  <path class="cls-2" d="M200.58,79.51c0,8.96-.07,17.92.05,26.88.03,2.24-.56,3.06-2.91,2.97-4.22-.18-8.46-.12-12.69,0-1.89.05-2.62-.49-2.62-2.5.06-18.17.09-36.34-.02-54.51-.02-2.66,1.91-3.25,3.45-4.33,5.62-3.9,5.54-3.73,11.3-.13,2.65,1.65,3.6,3.49,3.51,6.61-.24,8.33-.08,16.67-.08,25.01Z"/>
  <path class="cls-2" d="M332.32,191.04c-.18.97-.12,1.98-.17,2.97v12.99c-27.89-18.98-55.48-37.76-83.08-56.54.04-.24.09-.49.13-.74h18.63c6.91-.9,13.09-.24,19.21,4.27,13.09,9.64,26.7,18.59,40.31,27.51,3.74,2.45,5.81,5.03,4.97,9.54Z"/>
  <path class="cls-2" d="M50.89,207.58v-10.57c-.04-.24-.12-.49-.13-.73q-.38-10.47,8.21-16.31c13.66-9.29,27.35-18.55,40.95-27.94,2.57-1.78,5.08-2.8,8.25-2.59,4.08.26,8.18.18,12.28.25h15.47c-28.69,19.53-56.65,38.57-85.03,57.89Z"/>
  <path class="cls-1" d="M315.66,209.52c-1.26.83-2.52.45-3.69.46-13.82.03-27.63-.11-41.45.11-3.56.06-4.4-1.09-4.17-4.37.27-3.84.12-7.71.02-11.57-.05-1.72.43-2.41,2.28-2.39,6.72.1,13.44.06,20.16.04,1.06,0,1.93.32,2.77.89,7.8,5.33,15.61,10.66,23.4,16,.26.18.41.5.66.82Z"/>
  <path class="cls-1" d="M68.02,209.29c5.18-3.56,10.53-6.69,15.23-10.6,6.68-5.55,13.95-8.05,22.6-6.95,3.06.39,6.22.15,9.32.03,1.83-.07,2.34.62,2.3,2.37-.1,4.48-.1,8.96-.02,13.44.03,1.68-.39,2.46-2.26,2.45-15.42-.08-30.85-.07-46.27-.11-.18,0-.35-.24-.9-.62Z"/>
  <path class="cls-1" d="M116.66,95.12c5.26-3.58,10.09-6.81,14.85-10.14,1.18-.82,2.01-.44,2.98.22,11.39,7.77,22.79,15.53,34.17,23.29-.52,1.41-1.55.78-2.25.79-8.71.06-17.43,0-26.14.09-1.97.02-3.57-.49-5.17-1.62-5.98-4.18-12.04-8.26-18.44-12.62Z"/>
  <path class="cls-1" d="M215.25,109.29c.2-1.51,1.33-1.72,2.08-2.24,10.28-7.04,20.61-13.98,30.84-21.09,1.85-1.29,3.11-1.33,4.92,0,4.31,3.15,8.78,6.07,13.71,9.44-6.89,4.67-13.41,9.1-19.95,13.5-.38.26-.94.37-1.41.37-10.04.02-20.07.02-30.19.02Z"/>
</svg>