<?xml version="1.0" encoding="UTF-8"?>
<svg id="Capa_1" data-name="Capa 1" xmlns="http://www.w3.org/2000/svg" viewBox="0 0 383.12 383.19">
  <defs>
    <style>
      .cls-1 {
        fill: #FFD057;
      }

      .cls-1, .cls-2, .cls-3 {
        stroke-width: 0px;
      }

      .cls-2 {
        fill: transparent;
      }

      .cls-3 {
        fill: #14243A;
      }
    </style>
  </defs>
  <path class="cls-3" d="M0,139.26c4.39-11.36,14.09-18.34,22.23-26.53C56.85,77.87,91.67,43.2,126.41,8.45c11.22-11.22,24.97-11.29,36.22-.07,17.2,17.16,34.36,34.37,51.57,51.59,1.17-.99.62-2.18.63-3.19.06-8.11-.04-16.21.05-24.32.12-11.22,7.83-19,19.04-19.22,5.36-.11,10.73-.08,16.09,0,11.71.15,19.38,7.86,19.39,19.55.04,25.81.08,51.63-.07,77.44-.02,3.52.88,6.03,3.49,8.42,7.19,6.6,9.98,14.79,7.43,24.37-3.17,11.88-14.94,19.11-27.13,16.71-2.45-.48-2.96,0-2.96,2.4.06,36.16.09,72.33-.04,108.49,0,2.85,1.5,2.87,3.37,3.18,11.38,1.92,19.49,11.1,19.79,22.39.31,11.58-7.26,21.4-18.57,23.83-2.41.52-4.96.49-7.44.49-30.43.03-60.86.08-91.29-.06-3.29-.02-4.3.73-4.07,4.08.5,7.45-.55,14.96.68,22.4,2.22,13.38,11.48,21.29,25.05,21.29,39.78.02,79.56.02,119.35,0,16.71-.01,28.3-11.46,28.39-28.07.08-13.47-.03-26.94.06-40.4.01-2.25-.41-3.12-2.95-3.45-15.96-2.07-28.39-15.49-29.27-31.57-.35-6.34-.2-12.71-.18-19.07,0-1.83-.36-2.73-2.41-3.37-5.05-1.56-7.81-5.61-7.88-11.02-.1-8.23-.13-16.46,0-24.69.1-6.54,4.87-11.07,11.44-11.34,2.82-.12,6.5,1.26,8.24-.63,1.7-1.85.49-5.47.51-8.31.06-9.73,0-19.45.03-29.18.02-5.58,2.77-8.83,7.38-8.85,4.52-.02,7.55,3.41,7.57,8.78.04,11.72.09,23.45-.05,35.17-.03,2.47.66,3.15,3.11,3.1,7.85-.15,15.71-.17,23.57,0,2.62.06,3.36-.66,3.33-3.31-.14-11.97-.11-23.94-.03-35.91.03-4.69,3.02-7.76,7.25-7.83,4.14-.07,7.3,3.03,7.66,7.57.08.99.03,1.99.03,2.99,0,10.6.15,21.2-.08,31.8-.08,3.57.54,5.43,4.55,4.68,1.33-.25,2.74-.07,4.11-.03,6.52.18,11.46,4.74,11.62,11.22.21,8.35.2,16.71-.01,25.06-.14,5.38-2.99,9.29-8.21,10.79-2.04.59-2.08,1.54-2.13,3.11-.23,7.59.7,15.22-.59,22.77-2.52,14.78-14.19,26.16-29.05,28.09-2.48.32-2.67,1.3-2.66,3.3.06,13.59.12,27.19.01,40.78-.16,20.55-12.98,36.89-32.46,41.77-1.35.34-3.01-.38-4.07,1.05h-134.69c-.3-1.18-1.42-.86-2.15-1.07-17.38-4.98-26.67-16.86-29.38-34.35-1.19-7.68-.51-15.44-.5-23.15,0-3.07-.42-4.37-3.97-4.19-6.72.35-13.46.11-20.19.1-25.06-.03-50.12.13-75.18-.17-11.54-.14-21.25-10.07-21.99-21.49-.8-12.28,7.5-23.12,19.39-24.94,2.83-.43,3.82-1.19,3.8-4.29-.14-34.41-.08-68.82-.11-103.24,0-1.02.47-2.19-.52-3.25-.44.27-.84.51-1.24.76-14.17,8.9-30.86,2.85-36.13-13.08-.22-.66,0-1.56-.95-1.84v-9.73ZM118.46,280.67c-.93,5.7-3.16,7.62-9.05,7.62-22.32.02-44.64,0-66.95.02-1.49,0-3.01-.03-4.47.23-4.59.83-7.55,4.55-7.29,8.97.26,4.42,3.65,7.68,8.33,7.98,1.24.08,2.49.05,3.74.05,67.95,0,135.9,0,203.86,0,1.49,0,3,.04,4.48-.15,4-.52,6.96-3.82,7.17-7.86.29-5.64-3.55-9.2-10.18-9.21-22.82-.04-45.63,0-68.45-.02-5.84,0-8.02-1.86-9.13-7.61,1.44-5.59,3.65-7.34,9.53-7.35,17.2-.02,34.41-.09,51.61.07,2.97.03,3.64-.8,3.63-3.68-.1-39.52-.08-79.03-.02-118.55,0-2.41-.62-4.15-2.37-5.89-28.7-28.59-57.35-57.24-85.92-85.96-2.03-2.04-2.96-1.87-4.88.06-28.67,28.8-57.4,57.54-86.19,86.22-1.55,1.54-2.12,3.05-2.12,5.21.06,39.64.08,79.28-.02,118.92,0,2.87.63,3.7,3.61,3.67,17.33-.16,34.65-.1,51.98-.06,5.6.01,7.93,1.96,9.1,7.33ZM257.45,145.25c3.76.04,7.06-2.31,8.22-5.87,1.4-4.3-.59-7.37-3.5-10.28-36.61-36.56-73.18-73.17-109.77-109.75-5.89-5.89-9.89-5.84-15.85.12C97.58,58.44,58.61,97.4,19.65,136.37c-.88.88-1.8,1.74-2.57,2.71-2.53,3.18-2.63,7.18-.35,10.39,2.1,2.95,6.09,4.27,9.65,3.16,2.24-.7,3.74-2.4,5.32-3.99,35-35,70-70,105-105,6.41-6.41,9.23-6.43,15.54-.13,13.31,13.31,26.63,26.62,39.94,39.94,19.31,19.31,38.62,38.61,57.91,57.94,2.07,2.08,4.22,3.89,7.37,3.86ZM357.67,255.31c0-3.75-.09-6.87.03-9.98.07-1.81-.56-2.33-2.34-2.33-14.94.06-29.87.06-44.81,0-1.92,0-2.63.54-2.59,2.53.13,6.1-.14,12.21.19,18.29.51,9.56,7.99,17.11,17.49,17.71,4.71.3,9.47.29,14.18.02,8.43-.49,15.16-6.41,17.25-14.62,1.04-4.07.35-8.18.6-11.62ZM254.43,100.19c0-23.2,0-45.47,0-67.73,0-3.01-1.6-4.26-4.44-4.26-5.11,0-10.21.06-15.32-.02-3.51-.05-4.89,1.65-4.87,5.04.06,13.33.03,26.65,0,39.98,0,1.42.19,2.58,1.29,3.68,7.6,7.52,15.13,15.1,23.32,23.31ZM332.58,210.21c-10.58,0-21.17.1-31.75-.07-2.69-.04-3.37.77-3.23,3.33.22,3.85.16,7.72.02,11.57-.08,2.15.35,3.06,2.82,3.05,21.67-.1,43.33-.09,65-.01,2.2,0,2.74-.77,2.67-2.81-.14-3.85-.21-7.73.02-11.57.16-2.71-.5-3.62-3.41-3.57-10.7.19-21.42.08-32.12.08Z"/>
  <path class="cls-2" d="M248.09,288.32c-22.81-.04-45.63-.01-68.45-.03-5.84,0-8.02-1.85-9.12-7.6,1.44-5.59,3.65-7.35,9.52-7.35,17.21-.03,34.41-.09,51.61.06,2.97.03,3.64-.8,3.63-3.68-.1-39.51-.08-79.03-.02-118.54,0-2.41-.62-4.15-2.37-5.9-28.7-28.59-57.35-57.23-85.92-85.96-2.03-2.04-2.96-1.87-4.88.06-28.67,28.8-57.41,57.53-86.19,86.22-1.54,1.55-2.12,3.06-2.12,5.21.06,39.64.08,79.28-.02,118.92,0,2.87.63,3.7,3.61,3.67,17.33-.15,34.66-.1,51.98-.06,5.61.01,7.93,1.96,9.11,7.33-.93,5.7-3.16,7.62-9.05,7.62-22.32.02-44.64,0-66.96.02-1.49,0-3.01-.03-4.47.24-4.58.82-7.54,4.55-7.28,8.97s3.65,7.68,8.33,7.98c1.24.08,2.49.05,3.74.05h203.85c1.5,0,3.01.03,4.48-.16,4.01-.52,6.96-3.82,7.17-7.86.3-5.64-3.55-9.2-10.18-9.21ZM74.85,182.3c.52-37.55,32.44-68.61,70.02-68.14,39,.48,69.75,31.87,69.26,70.7-.48,38.36-32.25,69.33-70.52,68.74-38.68-.59-69.31-32.35-68.76-71.3ZM144.91,288.27c-4.37.18-6.85-2.17-8.03-7.58,1.37-4.92,3.84-7.29,7.63-7.3,3.87-.01,6.52,2.55,7.57,7.29-.8,4.98-3.12,7.43-7.17,7.59Z"/>
  <path class="cls-1" d="M257.45,145.25c-3.15.03-5.3-1.78-7.37-3.86-19.29-19.33-38.6-38.63-57.91-57.94-13.31-13.31-26.62-26.62-39.94-39.94-6.31-6.31-9.13-6.28-15.54.13-35,35-70,70-105,105-1.58,1.58-3.09,3.29-5.32,3.99-3.56,1.11-7.55-.2-9.65-3.16-2.29-3.21-2.18-7.21.35-10.39.77-.97,1.69-1.83,2.57-2.71C58.61,97.4,97.58,58.44,136.55,19.47c5.96-5.96,9.96-6.01,15.85-.12,36.59,36.58,73.16,73.19,109.77,109.75,2.91,2.91,4.9,5.98,3.5,10.28-1.16,3.57-4.45,5.92-8.22,5.88Z"/>
  <path class="cls-1" d="M357.67,255.31c-.25,3.44.43,7.56-.6,11.62-2.1,8.22-8.82,14.13-17.25,14.62-4.71.28-9.47.29-14.18-.02-9.49-.61-16.98-8.16-17.49-17.71-.32-6.08-.05-12.2-.19-18.29-.04-1.99.67-2.54,2.59-2.53,14.94.06,29.87.06,44.81,0,1.77,0,2.41.52,2.34,2.33-.12,3.11-.03,6.22-.03,9.98Z"/>
  <path class="cls-2" d="M254.43,100.19c-8.2-8.21-15.72-15.8-23.32-23.31-1.11-1.1-1.3-2.26-1.29-3.68.03-13.33.05-26.65,0-39.98-.01-3.4,1.36-5.1,4.87-5.04,5.1.08,10.21.02,15.32.02,2.84,0,4.44,1.25,4.44,4.26-.01,22.26,0,44.53,0,67.73Z"/>
  <path class="cls-1" d="M332.58,210.21c10.71,0,21.42.12,32.12-.08,2.92-.05,3.58.86,3.41,3.57-.23,3.85-.16,7.72-.02,11.57.07,2.05-.46,2.82-2.67,2.81-21.67-.07-43.33-.09-65,.01-2.46.01-2.9-.9-2.82-3.05.15-3.85.2-7.73-.02-11.57-.15-2.56.54-3.37,3.23-3.33,10.58.17,21.17.07,31.75.07Z"/>
  <path class="cls-3" d="M144.87,114.16c39.01.48,69.75,31.87,69.26,70.71-.48,38.36-32.25,69.32-70.52,68.74-38.68-.59-69.31-32.35-68.76-71.31.52-37.55,32.44-68.6,70.02-68.14ZM144.42,129.15c-30.12.06-54.62,24.6-54.62,54.72,0,30.05,24.62,54.73,54.63,54.77,30.25.04,54.85-24.66,54.73-54.97-.11-30.21-24.58-54.59-54.74-54.52Z"/>
  <path class="cls-1" d="M144.42,129.15c30.16-.06,54.63,24.31,54.74,54.52.11,30.31-24.48,55.01-54.73,54.97-30.02-.04-54.64-24.72-54.63-54.77,0-30.12,24.5-54.66,54.62-54.72ZM145.43,191.4c-3.6,7.28-6.92,13.93-10.18,20.61-2.4,4.92-1.27,9.14,2.87,11.13,4.15,2,8.11.31,10.59-4.63,5.01-10,9.99-20.02,14.93-30.05,3.28-6.66-.06-11.95-7.55-12.02-4.02-.04-8.05,0-12.54,0,3.62-7.27,6.96-13.92,10.23-20.6,2.41-4.93,1.32-9.19-2.79-11.24-4.08-2.03-8.11-.33-10.58,4.59-5.08,10.11-10.15,20.22-15.14,30.37-3.11,6.32.16,11.67,7.19,11.84,4.1.1,8.21.02,12.96.02Z"/>
  <path class="cls-3" d="M145.43,191.4c-4.75,0-8.86.08-12.96-.02-7.03-.17-10.29-5.51-7.19-11.84,4.99-10.15,10.06-20.26,15.14-30.37,2.47-4.91,6.51-6.61,10.58-4.59,4.1,2.04,5.2,6.31,2.79,11.24-3.27,6.68-6.62,13.33-10.23,20.6,4.49,0,8.52-.03,12.54,0,7.49.08,10.83,5.36,7.55,12.02-4.94,10.04-9.92,20.05-14.93,30.05-2.48,4.94-6.44,6.63-10.59,4.63-4.15-2-5.27-6.21-2.87-11.13,3.26-6.68,6.58-13.33,10.18-20.61Z"/>
</svg>