<?xml version="1.0" encoding="UTF-8"?>
<svg id="Capa_1" data-name="Capa 1" xmlns="http://www.w3.org/2000/svg" viewBox="0 0 359.15 359.32">
  <defs>
    <style>
      .cls-1 {
        fill: transparent;
      }

      .cls-1, .cls-2, .cls-3 {
        stroke-width: 0px;
      }

      .cls-2 {
        fill: #14243A;
      }

      .cls-3 {
        fill: #FFD057;
      }
    </style>
  </defs>
  <path class="cls-2" d="M353.85,36.12c-3.36-.41-5.66,1.61-6.78,5.94.03,21.16.05,42.32.12,63.49.01,1.71-.44,2.3-2.27,2.41-9.72.54-9.73.6-9.72-9.14.03-18.92.08-37.84.12-56.76-1.18-4.35-3.47-6.35-6.81-5.94-3.41.42-5.24,2.96-5.28,7.36,0,.5.06,1.01-.02,1.5-.2,1.25.76,3.67-1.8,2.97-3.58-.99-8.1,2.87-10.83-2.1-.11-.21-.03-.5-.09-.74-.85-3.24-1.47-6.57-2.61-9.71C300.85,16.02,281.26-.6,253.86.02c-26.65.6-47.2,18.34-50.06,44.79-.31,2.9-1.2,3.31-3.75,3.29-16.58-.11-33.16-.04-49.74-.06-9.11-.01-17.49,2.41-24.86,7.79-12.54,9.16-18.13,21.72-17.73,37.12.05,1.98.53,3.86-2.18,5.19-6.32,3.1-9.66,8.55-9.71,15.61-.04,7.22,3.44,12.53,9.72,16.08.71.4,2.17.22,1.9,2.02h-16.32q-7,0-7.36-6.92c-.49-9.49-8.44-17.02-17.94-17.02s-17.74,7.55-17.87,17.03c-.22,16.58-.2,33.16,0,49.74.11,8.74,7.3,16.05,16,16.96,8.57.9,16.71-4.64,19.12-12.91.82-2.82.82-5.68.67-8.53-.1-2.01.61-2.55,2.53-2.47,3.36.14,6.73.04,10.09.04h11.5c-.37.75-.39.9-.48.96-.3.21-.6.4-.93.56-6.58,3.27-10.41,8.51-10.61,15.89-.2,7.54,3.36,13.16,10.06,16.57,3.42,1.73,1.69,4.62,1.64,6.86-.05,2.1-2.42,1-3.66,1-32.16.08-64.32.06-96.48.07-4.4,0-6.94,1.87-7.36,5.27-.42,3.35,1.58,5.64,5.92,6.81,6.26.01,12.52.01,18.77.02h88.18c5.26-.79,6.67-2.53,6.82-7.88.09-3.31-1.5-7.82.7-9.6,2.07-1.66,6.4-.58,9.74-.6,7.09-.04,14.19.19,21.27-.1,3.45-.13,4.76.89,4.19,4.28-.15.85-.1,1.73-.14,2.6-.02,7.79,1.01,15.66-.65,23.35-2.1,9.78-7.7,16.99-17.12,20.94-3.67,2.02-7.68,2.72-11.8,2.77-5.59.07-11.19,0-16.78.03-4.75.02-6.3,1.29-7.51,5.99,1.26,4.71,2.79,5.96,7.56,5.97,6.23.01,12.47.15,18.69-.1,19.42-.78,36.15-15.83,39.04-35.02,1.45-9.66.4-19.41.62-29.11.04-1.8.4-2.82,2.15-3.73,6.41-3.3,9.85-8.74,9.81-15.95-.05-7.21-3.57-12.57-9.99-15.86-1.41-.72-1.97-1.45-1.96-3.07.07-11.21.03-22.43.05-33.65,0-1.07-.17-2.05,1.22-2.77,9.13-4.68,12.15-12.24,9.91-22.36,1.89,0,3.62.01,5.35,0,4.76-.05,6.29-1.27,7.56-5.98-1.23-4.71-2.77-5.98-7.5-5.99-20-.02-39.99-.14-59.99.11-3.97.05-4.9-1.19-4.5-4.76.28-2.45-.05-4.97.87-7.35,2.15-12.89,13.93-23.5,27.34-23.78,15.79-.34,31.6-.04,47.39-.02q8.25-.42,8.25,7.82c-.03,11.33-.08,22.65-.12,33.97.04,5.85-.01,11.7.16,17.55.07,2.12-.61,3.21-2.53,4.28-11.43,6.35-17.29,18.73-14.76,31.54,2.55,12.92,10.76,20.59,23.29,23.92,6.66,1.02,13.37.53,20.05.46,2.99-.04,4.4.57,3.85,3.79-.21,1.21-.11,2.47-.15,3.71.03,4.09.01,8.19.14,12.29.05,1.52-.6,2.48-1.55,3.56-6.03,6.81-6.11,15.51.03,22.2,2.07,2.26,1.39,4.52,1.24,6.91-1.5,5.12-5.1,7.88-9.62,7.39-4.71-.52-7.99-4.31-8.02-9.58-.06-10.55,0-21.1-.03-31.65-.01-4.77-1.31-6.37-5.94-7.52-4.44,1.05-6,2.67-6.02,6.71-.05,11.34-.17,22.68.05,34.02.21,11.06,9.54,19.97,20.57,20.06,10.05.09,18.4-6.58,20.6-16.62.48-2.19.94-3.27,3.5-2.13,2.83,1.25,5.84,2.14,8.82,2.98,1.82.52,2.52,1.35,2.6,3.34.92,24.02,2,48.05,2.93,72.07.54,13.89,11.08,24.32,24.68,24.2,13.32-.11,23.92-10.82,23.95-24.52.08-35.26.03-70.52.02-105.79,0-4.75-1.3-6.3-6.02-7.5-4.85,1.31-5.92,2.72-5.93,7.97-.01,34.91,0,69.81-.03,104.72-.01,9.68-8.38,15.79-16.94,12.32-4.83-1.95-7.48-5.75-7.7-10.95-.85-19.79-1.6-39.58-2.38-59.37-.25-6.22-.55-12.44-.75-18.66-.13-3.99-1.95-6.4-5.86-7.61-7.36-2.28-14.63-4.89-21.97-7.28-2.65-.86-4.62-2.28-4.11-5.3.51-2.97,2.78-3.82,5.59-3.78,5.61.06,11.22.02,16.83.01,6.47,0,8.35-1.81,8.2-8.13-.22-8.97-.53-17.93-.82-26.9-.16-4.83-2.28-6.85-7.31-6.86-15.46-.02-30.92.03-46.38-.03-9.2-.03-16.95-6.86-18.06-15.72-1.12-8.92,4.68-17.2,13.68-19.65,1.6-.44,3.19-.52,4.8-.52,26.56-.01,53.11.04,79.66-.1,3.14-.02,3.63,1.08,3.61,3.84-.12,14.21-.07,28.42-.05,42.63,0,4.85,1.18,6.32,5.92,7.6,4.72-1.21,6.01-2.76,6.02-7.5.02-21.05.01-42.1.01-63.14,0-7.28.01-7.02,7.33-7.39,4.02-.2,4.94,1.1,4.73,4.87-.29,5.06,2.09,7.18,7.25,7.2,7.1.04,14.2.04,21.29,0,5.11-.02,7.27-2.16,7.27-7.28.02-23.04.02-46.08,0-69.12,0-4.37-1.89-6.93-5.28-7.35ZM71.82,172.37c-.01,4.73-2.27,7.39-6.05,7.35-3.76-.04-5.9-2.72-5.91-7.48-.02-7.47-.01-14.94-.01-22.41s-.02-15.19.01-22.79c.02-4.45,2.21-7.06,5.87-7.15,3.78-.1,6.1,2.61,6.1,7.28.02,15.07.02,30.14-.01,45.2ZM98.81,155.8h-6.35c-9.65,0-9.83-.26-8.7-10.14.17-1.5.72-1.87,2.06-1.86,6.59.03,13.19.04,19.79-.01,1.59-.02,2.06.52,2.17,2.14.71,9.87.76,9.87-8.97,9.87ZM160.65,107.9c4.17,0,6.81,2.25,6.94,5.7.13,3.33-2.07,5.74-6.05,6.25-3.66.46-5.49,2.54-6.04,6.02v11.99c.04,9.22.04,18.43.16,27.65.02,1.83-.6,2.33-2.35,2.29-4.61-.1-9.23.12-13.83-.08-3.48-.15-6.02,1.05-7.72,4.06-.05.66-.11,1.32-.16,1.98,1.26,4.71,2.78,5.93,7.56,5.95,7.09.03,14.18-.02,21.27.02,4.43.02,7.11,2.26,7.16,5.85.04,3.76-2.71,6.12-7.3,6.12-15.05.03-30.1.03-45.15.01-4.53-.01-7.17-2.08-7.37-5.66-.19-3.41,1.93-5.57,6.34-6.32,3.44-.57,5.18-2.67,5.69-5.97-.03-13.08-.01-26.15-.13-39.22-.02-2.13.61-2.79,2.73-2.73,4.61.14,9.22.07,13.82.04,4.76-.03,6.29-1.27,7.55-5.98-1.26-4.73-2.79-5.97-7.54-5.98-6.98-.03-13.95,0-20.92-.02-4.77-.01-7.47-2.14-7.54-5.86-.08-3.75,2.63-6.08,7.31-6.09,15.19-.04,30.38-.05,45.57-.02ZM245.35,193.5c.28-3.72.15-7.48.03-11.22-.06-1.84.33-2.54,2.4-2.6,9.83-.29,9.83-.36,10.18,9.41.3,8.62.3,8.42-8.46,8.71-3.53.11-4.41-1-4.15-4.3ZM293.41,36.05c2.09-.03,2.36,1.37,2.91,2.7,3.7,9.06,3.6,9.21-5.86,9.21h-29.45c-.49,0-.99-.02-1.49,0-3.48.09-2.24-2.79-1.91-3.98.74-2.59-2.73-7.32,1.89-7.6,11.27-.69,22.6-.21,33.91-.33ZM241.63,48.11c-6.09-.25-7.81,1.48-8.33,7.37v56.97q.38,7.41-6.73,7.41c-2.61,0-5.24-.18-7.83.05-2.62.24-3.32-.62-3.3-3.26.12-16.92-.03-33.85.1-50.77.06-7.95-.92-15.98.73-23.84,2.41-11.41,8.45-20.26,19.23-25.43,3.39-2.52,7.38-3.52,11.42-4,13.93-1.67,26.99.26,37.98,9.96.35.31.9.4,1.35.59-.17.3-.35.61-.52.91-10.87,0-21.73.06-32.59-.04-2.95-.03-5.39.63-7.14,3.1-1.27,5.66-.55,11.4-.51,17.1.02,3.07-.7,4.01-3.86,3.88ZM251.32,119.88q-5.91,0-5.91-6.06t6.06-5.91q5.91,0,5.91,6.06,0,5.91-6.06,5.91ZM299.22,117.69c.03,1.63-.51,2.17-2.13,2.13-4.23-.09-8.46-.03-12.69-.03s-8.22-.12-12.32.05c-2.17.09-2.76-.65-2.68-2.74.15-4.1.13-8.21,0-12.32-.06-1.97.33-2.85,2.6-2.82,8.21.11,16.42.08,24.63-.07,2.17-.04,2.76.65,2.68,2.74-.17,4.35-.15,8.71-.09,13.06ZM323.27,93.01c.03,2.23-.49,3.24-2.88,2.96-1.6-.19-3.25-.15-4.85,0-2.53.22-4.34-.09-5.28-3.05-.66-2.11-2.9-2.95-5.2-2.95-13.83-.01-27.66-.02-41.49,0-2.78,0-4.95,1.29-5.71,3.95-.57,1.95-1.67,2.02-3.26,2.05q-9.19.16-9.19-8.93c0-7.6.18-15.2-.08-22.79-.11-3.35.75-4.87,4.23-4.23.6.11,1.24.09,1.86.13h65.8c.37-.04.74-.11,1.11-.1,6.07.02,4.83-.5,4.87,4.94.08,9.34-.04,18.69.07,28.03Z"/>
  <path class="cls-1" d="M305.23,197.6c-4.85,1.31-5.92,2.72-5.93,7.97-.01,34.91,0,69.81-.03,104.72,0,9.68-8.38,15.79-16.94,12.33-4.83-1.96-7.48-5.76-7.7-10.96-.85-19.79-1.59-39.58-2.38-59.36-.25-6.22-.55-12.44-.75-18.67-.13-3.99-1.95-6.39-5.86-7.6-7.37-2.29-14.63-4.89-21.97-7.28-2.65-.86-4.63-2.28-4.11-5.31.51-2.97,2.77-3.81,5.58-3.78,5.61.07,11.22.02,16.83.02,6.47,0,8.35-1.81,8.2-8.14-.22-8.97-.53-17.93-.82-26.9-.16-4.83-2.28-6.85-7.31-6.86-15.46-.02-30.91.03-46.37-.03-9.21-.04-16.96-6.86-18.07-15.72-1.12-8.92,4.68-17.2,13.68-19.65,1.6-.43,3.19-.52,4.81-.52,26.55,0,53.1.04,79.65-.1,3.14-.02,3.63,1.08,3.61,3.84-.12,14.21-.07,28.42-.05,42.64,0,4.85,1.18,6.31,5.92,7.6,0,3.92,0,7.85,0,11.77ZM251.38,143.84v-.02c-9.58,0-19.17-.02-28.75,0-4.45.01-7.07,2.22-7.13,5.88-.06,3.67,2.58,6.06,6.94,6.07,19.29.02,38.58.02,57.87-.02,4.37,0,7.02-2.38,6.96-6.05-.06-3.64-2.69-5.85-7.14-5.86-9.58-.03-19.17,0-28.75,0Z"/>
  <path class="cls-2" d="M125.64,359.32c-19.81-.03-34-18.85-28.66-38.1,3.45-12.42,10.92-22.49,19.12-32.1,1.7-1.99,3.42-3.98,5.32-5.76,2.67-2.5,5.87-2.73,8.36-.15,10.7,11.09,20.39,22.94,24.65,38.14,5.39,19.22-8.98,38-28.79,37.97ZM113.71,313.01c-2.87,4-4.71,8.46-5.67,13.25-1.85,9.19,4.18,18.21,13.62,20.57,8.81,2.2,18.06-2.93,20.69-11.49,1.54-2.76,1.67-5.77,1.04-8.7-2.45-11.48-9.51-20.36-16.69-29.16-1.05-1.29-1.63-.48-2.29.33-3.93,4.81-7.91,9.59-10.71,15.2Z"/>
  <path class="cls-2" d="M89.89,263.56c-1.27,4.71-2.8,5.97-7.54,5.97-24.99.02-49.99.02-74.98,0-4.36,0-6.92-1.91-7.32-5.3-.4-3.34,1.59-5.63,5.92-6.78,25.35.04,50.7.07,76.04.12,5.13.01,6.62,1.16,7.88,5.99Z"/>
  <path class="cls-3" d="M347.07,42.06c.03,21.16.05,42.33.13,63.49,0,1.71-.44,2.31-2.27,2.41-9.73.54-9.73.6-9.72-9.13.03-18.92.07-37.84.11-56.77,3.92,0,7.84,0,11.75,0Z"/>
  <path class="cls-1" d="M233.45,183.47c-.21,1.21-.11,2.47-.15,3.71.03,4.09.01,8.19.14,12.29.05,1.52-.6,2.48-1.55,3.56-6.03,6.81-6.11,15.51.03,22.2,2.07,2.26,1.39,4.52,1.24,6.91-1.5,5.12-5.1,7.88-9.62,7.39-4.71-.52-7.99-4.31-8.02-9.58-.06-10.55,0-21.1-.03-31.65-.01-4.77-1.31-6.37-5.94-7.52v-11.56c6.66,1.02,13.37.53,20.05.46,2.99-.04,4.4.57,3.85,3.79Z"/>
  <path class="cls-1" d="M286.25,23.16c-.17.3-.35.61-.52.91-10.87,0-21.73.06-32.59-.04-2.95-.03-5.39.63-7.14,3.1-1.27,5.66-.55,11.4-.51,17.1.02,3.07-.7,4.01-3.86,3.88-6.09-.25-7.81,1.48-8.33,7.37v56.97q.38,7.41-6.73,7.41c-2.61,0-5.24-.18-7.83.05-2.62.24-3.32-.62-3.3-3.26.12-16.92-.03-33.85.1-50.77.06-7.95-.92-15.98.73-23.84,2.41-11.41,8.45-20.26,19.23-25.43,3.39-2.52,7.38-3.52,11.42-4,13.93-1.67,26.99.26,37.98,9.96.35.31.9.4,1.35.59Z"/>
  <path class="cls-3" d="M203.51,67.96c-.03,11.33-.08,22.65-.12,33.97h-11.74c-1.23-4.71-2.77-5.98-7.5-5.99-20-.02-39.99-.14-59.99.11-3.97.05-4.9-1.19-4.5-4.76.28-2.45-.05-4.97.87-7.35,2.15-12.89,13.93-23.5,27.34-23.78,15.79-.34,31.6-.04,47.39-.02q8.25-.42,8.25,7.82Z"/>
  <path class="cls-3" d="M154.85,233.83c-2.1,9.78-7.7,16.99-17.12,20.94-3.67,2.02-7.68,2.72-11.8,2.77-5.59.07-11.19,0-16.78.03-4.75.02-6.3,1.29-7.51,5.99h-11.75c-1.26-4.83-2.75-5.98-7.88-5.99-25.34-.05-50.69-.08-76.04-.12v-35.69c6.26.01,12.52.01,18.77.02h88.18c5.26-.79,6.67-2.53,6.82-7.88.09-3.31-1.5-7.82.7-9.6,2.07-1.66,6.4-.58,9.74-.6,7.09-.04,14.19.19,21.27-.1,3.45-.13,4.76.89,4.19,4.28-.15.85-.1,1.73-.14,2.6-.02,7.79,1.01,15.66-.65,23.35Z"/>
  <path class="cls-3" d="M323.27,93.01c.03,2.23-.49,3.24-2.88,2.96-1.6-.19-3.25-.15-4.85,0-2.53.22-4.34-.09-5.28-3.05-.66-2.11-2.9-2.95-5.2-2.95-13.83-.01-27.66-.02-41.49,0-2.78,0-4.95,1.29-5.71,3.95-.57,1.95-1.67,2.02-3.26,2.05q-9.19.16-9.19-8.93c0-7.6.18-15.2-.08-22.79-.11-3.35.75-4.87,4.23-4.23.6.11,1.24.09,1.86.13h65.8c.37-.04.74-.11,1.11-.1,6.07.02,4.83-.5,4.87,4.94.08,9.34-.04,18.69.07,28.03Z"/>
  <path class="cls-1" d="M167.59,113.6c.13,3.33-2.07,5.74-6.05,6.25-3.66.46-5.49,2.54-6.04,6.02h-11.73c-1.26-4.73-2.79-5.97-7.54-5.98-6.98-.03-13.95,0-20.92-.02-4.77-.01-7.47-2.14-7.54-5.86-.08-3.75,2.63-6.08,7.31-6.09,15.19-.04,30.38-.05,45.57-.02,4.17,0,6.81,2.25,6.94,5.7Z"/>
  <path class="cls-1" d="M167.59,185.58c.04,3.76-2.71,6.12-7.3,6.12-15.05.03-30.1.03-45.15.01-4.53-.01-7.17-2.08-7.37-5.66-.19-3.41,1.93-5.57,6.34-6.32,3.44-.57,5.18-2.67,5.69-5.97h11.8c1.26,4.71,2.78,5.93,7.56,5.95,7.09.03,14.18-.02,21.27.02,4.43.02,7.11,2.26,7.16,5.85Z"/>
  <path class="cls-1" d="M59.86,149.83c0-7.6-.02-15.19,0-22.79.02-4.45,2.2-7.06,5.87-7.15,3.78-.1,6.1,2.61,6.1,7.28.02,15.07.02,30.13-.02,45.2-.01,4.72-2.27,7.39-6.05,7.35-3.76-.04-5.9-2.72-5.91-7.48-.02-7.47,0-14.94,0-22.41Z"/>
  <path class="cls-3" d="M155.66,165.51c.02,1.83-.6,2.33-2.35,2.29-4.61-.1-9.23.12-13.83-.08-3.48-.15-6.02,1.05-7.72,4.06-.05.66-.11,1.32-.16,1.98h-11.8c-.03-13.08-.01-26.15-.13-39.22-.02-2.13.61-2.79,2.73-2.73,4.61.14,9.22.07,13.82.04,4.76-.03,6.29-1.27,7.55-5.98h11.73v11.99c.04,9.22.04,18.43.16,27.65Z"/>
  <path class="cls-1" d="M284.4,119.79c-4.11,0-8.22-.12-12.32.05-2.17.09-2.76-.65-2.68-2.74.15-4.1.13-8.21,0-12.32-.06-1.97.32-2.86,2.59-2.83,8.21.11,16.42.08,24.63-.07,2.16-.04,2.76.64,2.68,2.74-.17,4.35-.15,8.71-.08,13.06.03,1.63-.51,2.17-2.14,2.13-4.23-.09-8.46-.03-12.69-.03Z"/>
  <path class="cls-1" d="M277.79,47.95c-5.59,0-11.18,0-16.78,0-.5,0-.99-.01-1.49,0-3.49.09-2.24-2.79-1.91-3.98.74-2.59-2.73-7.32,1.89-7.6,11.27-.69,22.6-.21,33.91-.33,2.09-.02,2.36,1.37,2.91,2.71,3.7,9.06,3.6,9.2-5.86,9.2-4.23,0-8.45,0-12.68,0Z"/>
  <path class="cls-1" d="M95.45,155.79c-1,0-1.99,0-2.99,0-9.65,0-9.83-.26-8.71-10.14.17-1.5.73-1.87,2.06-1.86,6.6.03,13.19.05,19.79-.01,1.59-.01,2.06.52,2.17,2.14.71,9.87.75,9.87-8.97,9.87-1.12,0-2.24,0-3.36,0Z"/>
  <path class="cls-2" d="M251.38,143.84c9.58,0,19.17-.02,28.75,0,4.45.01,7.08,2.22,7.14,5.86.06,3.67-2.59,6.04-6.96,6.05-19.29.04-38.58.04-57.87.02-4.36,0-6.99-2.4-6.94-6.07.06-3.66,2.67-5.86,7.13-5.88,9.58-.03,19.17,0,28.75,0v.02Z"/>
  <path class="cls-3" d="M142.35,335.35c-2.64,8.56-11.88,13.69-20.69,11.49-9.45-2.36-15.47-11.38-13.62-20.57.96-4.79,2.79-9.26,5.67-13.26,2.8-5.6,6.78-10.38,10.71-15.19.66-.81,1.23-1.62,2.28-.33,7.18,8.8,14.24,17.68,16.69,29.16.63,2.93.5,5.95-1.04,8.7Z"/>
</svg>